<?xml version="1.0" encoding="iso-8859-1"?>
<!-- Uploaded to: SVG Repo, www.svgrepo.com, Generator: SVG Repo Mixer Tools -->
<!DOCTYPE svg PUBLIC "-//W3C//DTD SVG 1.1//EN" "http://www.w3.org/Graphics/SVG/1.1/DTD/svg11.dtd">
<svg fill="#000000" version="1.1" id="Capa_1" xmlns="http://www.w3.org/2000/svg" xmlns:xlink="http://www.w3.org/1999/xlink" 
	 width="800px" height="800px" viewBox="0 0 27 27" xml:space="preserve">
<g>
	<g>
		<circle cx="6.823" cy="7.929" r="0.476"/>
		<circle cx="20.178" cy="9.441" r="0.476"/>
		<circle cx="12.565" cy="3.375" r="0.476"/>
		<path d="M13.5,0C6.044,0,0,6.044,0,13.5C0,20.957,6.044,27,13.5,27S27,20.957,27,13.5C27,6.044,20.956,0,13.5,0z M20.865,9.837
			c-0.148,0.256-0.42,0.387-0.695,0.384l-3.707,6.417c-0.07,0.122-0.211,0.176-0.343,0.147l-2.031,3.516l1.382,2.604l-1.5-2.397
			l-0.082,0.143l-2.357,3.768l2.083-3.926l0.166-0.288l-0.668-1.067l-0.463-0.802l-0.083,2.334l-0.095-2.642l-1.591-2.754
			c-0.131,0.027-0.273-0.024-0.343-0.146L6.832,8.71C6.556,8.711,6.285,8.581,6.136,8.325C5.917,7.946,6.047,7.461,6.427,7.242
			c0.379-0.22,0.865-0.09,1.084,0.29c0.148,0.255,0.125,0.555-0.015,0.794l3.706,6.419c0.07,0.122,0.046,0.271-0.046,0.37
			l1.292,2.236l-0.041-1.125v-4.461c-0.129-0.04-0.225-0.157-0.225-0.297V4.056c-0.241-0.137-0.41-0.385-0.41-0.681
			c0-0.438,0.354-0.794,0.794-0.794c0.438,0,0.793,0.355,0.793,0.794c0,0.296-0.17,0.544-0.411,0.68v7.413
			c0,0.14-0.095,0.257-0.225,0.297v4.461l-0.054,1.513l0.716,1.241l0.527,0.994l1.931-3.348c-0.091-0.1-0.116-0.248-0.045-0.37
			l3.706-6.418c-0.139-0.239-0.163-0.54-0.016-0.794c0.222-0.381,0.707-0.51,1.085-0.292C20.953,8.973,21.084,9.458,20.865,9.837z"
			/>
	</g>
</g>
</svg>