<svg version="1.1" id="Layer_1" xmlns="http://www.w3.org/2000/svg" xmlns:xlink="http://www.w3.org/1999/xlink" x="0px" y="0px"
	 width="100%" viewBox="0 0 271 250" enable-background="new 0 0 271 250" xml:space="preserve">
<path fill="#FFFFFF" opacity="1.000000" stroke="none" 
	d="
M169.000000,251.000000 
	C112.666679,251.000000 56.833359,251.000000 1.000030,251.000000 
	C1.000020,167.666702 1.000020,84.333397 1.000010,1.000075 
	C91.333282,1.000050 181.666565,1.000050 271.999878,1.000025 
	C271.999939,84.333260 271.999939,167.666519 271.999969,250.999878 
	C237.833328,251.000000 203.666672,251.000000 169.000000,251.000000 
M224.642197,205.745468 
	C225.100723,204.745804 225.559250,203.746124 226.204681,202.452393 
	C226.352783,202.268280 226.532425,202.123215 227.504700,202.016235 
	C229.339584,199.346069 231.174484,196.675888 233.000000,194.000000 
	C233.000000,194.000000 233.006439,194.008926 233.749115,193.969955 
	C234.502563,192.314407 235.255997,190.658859 235.999390,189.000000 
	C235.999390,189.000000 236.006302,189.009033 236.720840,188.981522 
	C237.525803,188.211960 238.594040,187.584442 239.097122,186.652008 
	C250.748642,165.055923 253.975906,141.987656 249.404297,118.127441 
	C245.068756,95.499329 234.009918,76.429680 216.595337,60.948326 
	C193.610809,40.515392 166.445267,33.367218 136.711594,36.326412 
	C115.022118,38.485020 96.137001,48.085819 80.126945,63.243240 
	C55.078602,86.957626 44.802650,116.324425 48.272926,150.032928 
	C50.866409,175.224640 62.204041,196.777313 81.340012,213.867416 
	C103.490761,233.649948 129.161819,242.833923 158.934021,239.915176 
	C173.260315,238.510696 186.815720,234.632034 199.240707,227.293594 
	C202.077057,225.618423 204.430634,223.125824 207.000000,221.000000 
	C207.000000,221.000000 207.009079,221.006912 207.739792,221.038315 
	C210.498795,219.034012 213.257797,217.029724 216.549271,214.779236 
	C217.056931,214.198517 217.564590,213.617798 218.667084,212.732773 
	C220.447266,210.491150 222.227432,208.249512 224.000000,206.000000 
	C224.000000,206.000000 224.008392,206.005630 224.642197,205.745468 
z"/>
<path fill="#FCF9FC" opacity="1.000000" stroke="none" 
	d="
M226.743591,202.017181 
	C226.532425,202.123215 226.352783,202.268280 225.770172,202.729492 
	C224.893250,204.006271 224.450821,205.005951 224.008392,206.005630 
	C224.008392,206.005630 224.000000,206.000000 223.657227,206.017548 
	C220.848999,208.348709 218.383545,210.662338 215.707794,213.086060 
	C215.239456,213.394882 215.050781,213.645767 214.589447,214.002991 
	C211.834625,216.373734 209.421860,218.690323 207.009079,221.006912 
	C207.009079,221.006912 207.000000,221.000000 206.631073,220.989288 
	C205.621094,221.127472 204.874832,221.113129 204.354126,221.448746 
	C183.319092,235.005585 160.547821,240.658646 135.579651,237.026672 
	C114.874184,234.014755 96.646614,225.593704 81.787720,211.052185 
	C57.878540,187.653687 46.725834,159.278183 50.972668,125.531197 
	C53.690926,103.930893 62.318142,84.966759 77.353035,69.315704 
	C94.884766,51.065479 116.065651,40.368713 141.870544,38.742184 
	C154.341476,37.956112 166.337296,39.020226 178.061478,42.609711 
	C196.515961,48.259747 212.094162,58.388638 224.852905,73.172760 
	C239.658005,90.328094 247.109558,110.327171 248.857803,132.455521 
	C250.258270,150.181778 246.181335,167.082947 238.064407,182.968933 
	C237.106628,184.843445 236.679459,186.989075 236.006287,189.009033 
	C236.006302,189.009033 235.999390,189.000000 235.687958,189.140228 
	C234.586502,190.856613 233.796478,192.432770 233.006439,194.008926 
	C233.006439,194.008926 233.000000,194.000000 232.661835,194.036530 
	C230.463623,196.721100 228.603607,199.369141 226.743591,202.017181 
M63.396332,174.977127 
	C69.070755,187.975464 77.229362,199.084076 87.822769,208.592102 
	C125.218727,242.156616 187.006256,241.056137 222.350281,196.896667 
	C254.000580,157.352188 249.058578,102.551903 211.802902,68.022606 
	C170.043472,29.319143 100.606819,38.742985 70.733604,87.280060 
	C53.706398,114.945343 51.585892,144.046448 63.396332,174.977127 
z"/>
<path fill="#DEDEDE" opacity="1.000000" stroke="none" 
	d="
M236.363556,188.995270 
	C236.679459,186.989075 237.106628,184.843445 238.064407,182.968933 
	C246.181335,167.082947 250.258270,150.181778 248.857803,132.455521 
	C247.109558,110.327171 239.658005,90.328094 224.852905,73.172760 
	C212.094162,58.388638 196.515961,48.259747 178.061478,42.609711 
	C166.337296,39.020226 154.341476,37.956112 141.870544,38.742184 
	C116.065651,40.368713 94.884766,51.065479 77.353035,69.315704 
	C62.318142,84.966759 53.690926,103.930893 50.972668,125.531197 
	C46.725834,159.278183 57.878540,187.653687 81.787720,211.052185 
	C96.646614,225.593704 114.874184,234.014755 135.579651,237.026672 
	C160.547821,240.658646 183.319092,235.005585 204.354126,221.448746 
	C204.874832,221.113129 205.621094,221.127472 206.634277,220.994019 
	C204.430634,223.125824 202.077057,225.618423 199.240707,227.293594 
	C186.815720,234.632034 173.260315,238.510696 158.934021,239.915176 
	C129.161819,242.833923 103.490761,233.649948 81.340012,213.867416 
	C62.204041,196.777313 50.866409,175.224640 48.272926,150.032928 
	C44.802650,116.324425 55.078602,86.957626 80.126945,63.243240 
	C96.137001,48.085819 115.022118,38.485020 136.711594,36.326412 
	C166.445267,33.367218 193.610809,40.515392 216.595337,60.948326 
	C234.009918,76.429680 245.068756,95.499329 249.404297,118.127441 
	C253.975906,141.987656 250.748642,165.055923 239.097122,186.652008 
	C238.594040,187.584442 237.525803,188.211960 236.363556,188.995270 
z"/>
<path fill="#DEDEDE" opacity="1.000000" stroke="none" 
	d="
M207.374435,221.022614 
	C209.421860,218.690323 211.834625,216.373734 214.824142,214.123932 
	C215.606171,214.468964 215.811478,214.747192 216.016785,215.025421 
	C213.257797,217.029724 210.498795,219.034012 207.374435,221.022614 
z"/>
<path fill="#DEDEDE" opacity="1.000000" stroke="none" 
	d="
M227.124146,202.016708 
	C228.603607,199.369141 230.463623,196.721100 232.666504,194.039398 
	C231.174484,196.675888 229.339584,199.346069 227.124146,202.016708 
z"/>
<path fill="#DEDEDE" opacity="1.000000" stroke="none" 
	d="
M215.918091,212.975983 
	C218.383545,210.662338 220.848999,208.348709 223.661026,206.021484 
	C222.227432,208.249512 220.447266,210.491150 218.010406,212.870880 
	C216.875183,212.997971 216.396637,212.986984 215.918091,212.975983 
z"/>
<path fill="#DEDEDE" opacity="1.000000" stroke="none" 
	d="
M233.377777,193.989441 
	C233.796478,192.432770 234.586502,190.856613 235.692993,189.141876 
	C235.255997,190.658859 234.502563,192.314407 233.377777,193.989441 
z"/>
<path fill="#DEDEDE" opacity="1.000000" stroke="none" 
	d="
M224.325302,205.875549 
	C224.450821,205.005951 224.893250,204.006271 225.676712,202.876526 
	C225.559250,203.746124 225.100723,204.745804 224.325302,205.875549 
z"/>
<path fill="#E0E0E0" opacity="1.000000" stroke="none" 
	d="
M215.707794,213.086075 
	C216.396637,212.986984 216.875183,212.997971 217.712982,213.023026 
	C217.564590,213.617798 217.056931,214.198517 216.283020,214.902328 
	C215.811478,214.747192 215.606171,214.468964 215.166168,214.069778 
	C215.050781,213.645767 215.239456,213.394882 215.707794,213.086075 
z"/>
<path fill="#4F1A64" opacity="1.000000" stroke="none" 
	d="
M63.230820,174.631256 
	C51.585892,144.046448 53.706398,114.945343 70.733604,87.280060 
	C100.606819,38.742985 170.043472,29.319143 211.802902,68.022606 
	C249.058578,102.551903 254.000580,157.352188 222.350281,196.896667 
	C187.006256,241.056137 125.218727,242.156616 87.822769,208.592102 
	C77.229362,199.084076 69.070755,187.975464 63.230820,174.631256 
M212.829285,184.384995 
	C220.739334,175.692459 225.090103,165.132065 226.638702,153.820053 
	C227.836838,145.068161 227.260193,136.019730 226.923981,127.123856 
	C226.413773,113.624176 220.931168,101.638054 213.116943,91.082489 
	C208.377350,84.680168 201.763779,79.592880 195.678192,74.273964 
	C182.143433,62.444313 165.598862,58.299366 148.304626,58.327229 
	C139.975082,58.340649 131.490173,60.335835 123.217003,63.435024 
	C112.781181,67.344368 102.963928,71.498917 95.482079,80.012550 
	C92.782249,83.084702 89.861443,85.981178 87.358406,89.203964 
	C81.853783,96.291473 76.607880,103.608017 74.067917,112.370071 
	C69.523193,128.047943 66.873924,143.552322 73.438919,159.689285 
	C76.319878,166.770767 78.950432,173.772034 82.733177,180.507629 
	C87.475067,188.951050 93.943817,195.688950 101.202309,201.549698 
	C110.459824,209.024551 121.015762,213.869354 133.141830,215.820633 
	C145.936661,217.879547 158.657715,218.321579 170.838684,214.598541 
	C179.714630,211.885651 188.361374,207.315811 195.990891,201.974792 
	C202.335983,197.532913 207.050766,190.762222 212.829285,184.384995 
z"/>
<path fill="#5B235F" opacity="1.000000" stroke="none" 
	d="
M212.658493,184.704041 
	C207.050766,190.762222 202.335983,197.532913 195.990891,201.974792 
	C188.361374,207.315811 179.714630,211.885651 170.838684,214.598541 
	C158.657715,218.321579 145.936661,217.879547 133.141830,215.820633 
	C121.015762,213.869354 110.459824,209.024551 101.202309,201.549698 
	C93.943817,195.688950 87.475067,188.951050 82.733177,180.507629 
	C78.950432,173.772034 76.319878,166.770767 73.438919,159.689285 
	C66.873924,143.552322 69.523193,128.047943 74.067917,112.370071 
	C76.607880,103.608017 81.853783,96.291473 87.358406,89.203964 
	C89.861443,85.981178 92.782249,83.084702 95.482079,80.012550 
	C102.963928,71.498917 112.781181,67.344368 123.217003,63.435024 
	C131.490173,60.335835 139.975082,58.340649 148.304626,58.327229 
	C165.598862,58.299366 182.143433,62.444313 195.678192,74.273964 
	C201.763779,79.592880 208.377350,84.680168 213.116943,91.082489 
	C220.931168,101.638054 226.413773,113.624176 226.923981,127.123856 
	C227.260193,136.019730 227.836838,145.068161 226.638702,153.820053 
	C225.090103,165.132065 220.739334,175.692459 212.658493,184.704041 
M81.687294,122.319214 
	C70.985138,172.004929 113.030426,214.185028 160.344498,206.158707 
	C197.078979,199.927094 221.310684,168.081299 218.041473,130.182755 
	C215.052780,95.536118 183.694717,67.574112 148.361359,68.048950 
	C116.795799,68.473160 89.439835,90.458015 81.687294,122.319214 
z"/>
<path fill="#F2CD56" opacity="1.000000" stroke="none" 
	d="
M81.769669,121.909470 
	C89.439835,90.458015 116.795799,68.473160 148.361359,68.048950 
	C183.694717,67.574112 215.052780,95.536118 218.041473,130.182755 
	C221.310684,168.081299 197.078979,199.927094 160.344498,206.158707 
	C113.030426,214.185028 70.985138,172.004929 81.769669,121.909470 
M150.797745,83.599640 
	C150.621506,83.300583 150.367935,83.098579 149.339157,82.843590 
	C148.869598,82.895515 148.400040,82.947441 147.504135,83.235184 
	C147.242020,83.453850 147.083984,83.731735 147.005554,84.005959 
	C147.005554,84.005959 147.069550,84.027435 146.588989,84.232445 
	C146.418289,84.526573 146.247589,84.820702 146.088837,85.028122 
	C146.088837,85.028122 146.153366,85.087265 145.544006,85.248474 
	C145.012100,85.872604 144.480194,86.496727 143.709610,87.243713 
	C143.709610,87.243713 143.458817,87.147980 142.589386,87.064445 
	C140.386398,87.729370 138.183395,88.394295 135.696472,89.190514 
	C135.696472,89.190514 135.386063,89.151802 134.700439,89.083023 
	C134.133301,89.383118 133.566162,89.683220 132.688583,90.129982 
	C132.688583,90.129982 132.345413,90.139900 131.660034,90.079697 
	C131.110977,90.405983 130.561935,90.732269 130.004913,90.999519 
	C130.004913,90.999519 130.053345,91.034241 129.443817,91.037910 
	C128.963684,91.356178 128.483551,91.674446 127.456566,92.347595 
	C126.192802,93.174965 124.929031,94.002342 123.150520,94.903305 
	C122.739052,95.203018 122.327576,95.502731 121.394211,96.018478 
	C121.257935,96.338669 121.121658,96.658859 120.999542,97.000610 
	C120.999542,97.000610 120.993500,96.976135 120.250290,96.894150 
	C119.835968,97.417725 119.421646,97.941299 118.975677,98.478996 
	C118.975677,98.478996 118.957878,98.508148 118.224754,98.545189 
	C109.472946,105.553780 102.695427,113.931305 99.389442,125.424370 
	C99.283768,126.010185 99.178093,126.596001 99.056900,127.620689 
	C99.056900,127.620689 98.908775,128.034088 98.363838,128.551651 
	C96.136604,135.889877 96.198494,143.064087 100.047729,150.399612 
	C100.047729,150.399612 100.057755,150.846985 100.012039,151.564346 
	C100.367279,152.372147 100.722527,153.179932 101.008614,153.992264 
	C101.008614,153.992264 101.044327,153.932861 101.001900,154.863220 
	C101.028900,166.847809 101.028900,166.847809 109.541779,169.160583 
	C109.803360,169.345718 109.957245,169.596848 110.191261,170.402527 
	C110.466728,170.606049 110.742195,170.809570 111.467445,171.228165 
	C111.751244,171.438553 111.915237,171.719009 112.028557,172.671799 
	C112.415245,173.082123 112.801933,173.492432 113.104317,173.948563 
	C113.104317,173.948563 113.102570,173.852631 113.241127,174.365387 
	C113.520355,174.568192 113.799583,174.770996 114.009529,174.991577 
	C114.009529,174.991577 114.026955,174.922195 114.220757,175.407806 
	C114.504967,175.597107 114.789169,175.786392 115.006622,175.993500 
	C115.006622,175.993500 115.024139,175.926666 115.221939,176.410599 
	C115.507446,176.597870 115.792953,176.785141 116.009056,176.990891 
	C116.009056,176.990891 116.027435,176.921463 116.222549,177.406982 
	C116.507309,177.595917 116.792061,177.784851 117.004120,177.983688 
	C117.004120,177.983688 117.040642,177.920044 117.108826,178.627884 
	C118.078423,179.083817 119.048019,179.539764 119.998787,180.002029 
	C119.998787,180.002029 119.999817,179.982285 120.212227,180.446655 
	C120.494957,180.625000 120.777679,180.803360 120.999321,180.994064 
	C120.999321,180.994064 121.027939,180.938690 121.106628,181.648483 
	C122.088524,182.086823 123.070419,182.525162 123.997948,182.995712 
	C123.997948,182.995712 124.031258,182.941879 124.128586,183.682373 
	C125.454292,184.117813 126.779991,184.553268 128.554932,185.050476 
	C128.554932,185.050476 128.981186,185.205139 129.245819,185.579681 
	C129.470108,185.806519 129.740616,185.938934 130.000504,185.997894 
	C130.000504,185.997894 130.014709,185.938995 130.309998,186.597458 
	C133.875320,187.725571 137.440659,188.853668 141.937378,189.996063 
	C146.624588,189.990097 151.311798,189.984116 156.442810,189.789566 
	C156.719162,189.606171 156.922897,189.362137 157.911041,189.048340 
	C162.904587,187.593063 168.095398,186.588928 172.821671,184.522385 
	C175.922455,183.166595 178.351913,180.275391 181.491333,177.830200 
	C181.748199,177.631424 181.941467,177.383118 182.492844,176.852631 
	C182.750717,176.650879 182.948700,176.401566 183.821213,176.047668 
	C184.913437,174.725266 186.005661,173.402863 187.506302,171.840378 
	C187.761917,171.641388 187.953812,171.393158 188.501328,170.852585 
	C188.753830,170.640610 188.943787,170.382599 189.760788,169.959106 
	C191.858215,168.358200 193.955627,166.757294 196.275345,164.526840 
	C196.325668,164.310074 196.376007,164.093307 196.818405,163.237823 
	C197.114990,160.961227 197.373199,158.678848 197.715240,156.409103 
	C198.790436,149.274338 200.887344,142.115234 200.678909,135.021667 
	C200.511642,129.329498 197.563675,123.719017 195.923401,118.012573 
	C195.923401,118.012573 195.922852,118.107468 195.801773,117.621826 
	C195.561935,117.397385 195.322098,117.172951 194.935043,116.661087 
	C194.935043,116.661087 194.905045,116.339539 194.941910,115.644630 
	C194.583603,115.113899 194.225296,114.583168 193.982346,114.037796 
	C193.982346,114.037796 193.887680,114.105324 193.958878,113.371689 
	C193.277252,112.596703 192.595612,111.821716 191.983856,110.997574 
	C191.983856,110.997574 191.947418,111.074829 191.980988,110.343437 
	C191.285614,109.583328 190.590240,108.823219 189.955093,108.004936 
	C189.955093,108.004936 189.959564,108.088539 189.789871,107.596153 
	C189.513550,107.398315 189.237228,107.200478 189.004105,106.999580 
	C189.004105,106.999580 188.986862,107.039314 188.963135,106.413040 
	C188.582428,105.975540 188.201721,105.538040 187.916718,105.148376 
	C187.916718,105.148376 187.817993,105.189606 187.864258,104.492630 
	C187.196533,104.030891 186.528809,103.569160 185.898270,103.030968 
	C185.898270,103.030968 185.939255,103.105461 185.764236,102.606972 
	C185.473709,102.423897 185.183182,102.240822 184.978195,102.020393 
	C184.978195,102.020393 184.942551,102.106667 184.765549,101.606964 
	C184.473465,101.424255 184.181366,101.241539 183.974503,101.021210 
	C183.974503,101.021210 183.942688,101.108757 183.762268,100.609665 
	C183.469269,100.427620 183.176254,100.245567 182.972992,100.029297 
	C182.972992,100.029297 182.936676,100.118210 182.758194,99.615356 
	C182.460144,99.439285 182.162109,99.263206 181.966751,99.062073 
	C181.966751,99.062073 181.914398,99.153908 181.690338,98.599892 
	C181.155243,98.384117 180.620163,98.168343 180.015976,97.990273 
	C180.015976,97.990273 180.026962,97.912338 179.793060,97.490562 
	C179.578720,97.230522 179.305740,97.070541 179.000244,96.998306 
	C179.000244,96.998306 178.990768,97.025398 178.775543,96.558907 
	C178.484955,96.391731 178.194366,96.224556 177.989456,96.078056 
	C177.989456,96.078056 177.912704,96.121391 177.875427,95.393486 
	C176.879761,94.966965 175.884079,94.540443 174.987213,94.133781 
	C174.987213,94.133781 174.887436,94.151657 174.849838,93.396042 
	C173.540726,92.953537 172.231628,92.511040 170.994141,92.013969 
	C170.994141,92.013969 170.965805,92.099442 170.660858,91.549660 
	C170.072845,91.405113 169.484818,91.260567 168.978973,91.020538 
	C168.978973,91.020538 168.942093,91.140984 168.593307,90.544182 
	C167.708282,90.377716 166.823242,90.211243 165.994064,90.003220 
	C165.994064,90.003220 165.983475,90.072021 165.594894,89.502647 
	C164.706299,89.354996 163.817703,89.207336 162.993469,89.010078 
	C162.993469,89.010078 162.976044,89.089439 162.582916,88.474976 
	C158.988235,87.387115 155.393539,86.299263 151.833176,85.117554 
	C151.833176,85.117554 151.926804,85.082619 151.759995,84.597618 
	C151.481186,84.414307 151.202362,84.230995 150.988800,83.999504 
	C150.988800,83.999504 150.950638,84.071045 150.797745,83.599640 
z"/>
<path fill="#834D3D" opacity="1.000000" stroke="none" 
	d="
M194.905045,116.339539 
	C194.905045,116.339539 194.935043,116.661087 195.041412,117.068115 
	C195.406143,117.685921 195.664505,117.896698 195.922852,118.107468 
	C195.922852,118.107468 195.923401,118.012573 195.895050,118.434036 
	C200.502975,131.175552 199.936996,143.446335 196.002274,155.858643 
	C195.245300,158.246506 196.239822,161.189575 196.426361,163.876526 
	C196.376007,164.093307 196.325668,164.310074 195.789230,164.833221 
	C194.553864,165.153183 193.804596,165.166779 193.186157,164.785004 
	C193.193985,161.200134 193.071014,158.010651 193.038269,154.450928 
	C197.144958,141.781860 197.299728,129.682877 191.173584,117.582916 
	C190.390091,116.454361 189.689194,115.647575 189.001251,114.612396 
	C189.014221,114.384010 188.991867,113.927055 188.867340,113.614395 
	C182.642990,103.517418 174.418427,96.386009 163.001251,92.647308 
	C160.169876,91.571556 157.609512,90.751045 154.906311,89.666641 
	C154.490036,88.867332 154.216599,88.331909 154.364227,87.802551 
	C157.515533,88.235550 160.245789,88.662498 162.976044,89.089439 
	C162.976044,89.089439 162.993469,89.010078 163.178940,89.290253 
	C164.237427,89.737617 165.110458,89.904816 165.983475,90.072021 
	C165.983475,90.072021 165.994064,90.003220 166.180511,90.278992 
	C167.225327,90.750168 168.083710,90.945580 168.942093,91.140984 
	C168.942093,91.140984 168.978973,91.020538 169.096985,91.330154 
	C169.798599,91.792992 170.382202,91.946213 170.965805,92.099442 
	C170.965805,92.099442 170.994141,92.013969 171.144562,92.311508 
	C172.492477,93.123253 173.689957,93.637451 174.887436,94.151657 
	C174.887436,94.151657 174.987213,94.133781 175.084122,94.402596 
	C176.091599,95.154739 177.002151,95.638062 177.912704,96.121384 
	C177.912704,96.121391 177.989456,96.078056 178.039001,96.311844 
	C178.389282,96.705551 178.690018,96.865471 178.990768,97.025398 
	C178.990768,97.025398 179.000244,96.998306 179.092346,97.226585 
	C179.397736,97.731796 179.678558,97.884285 180.026962,97.912338 
	C180.026962,97.912338 180.015976,97.990273 180.189178,98.227081 
	C180.879715,98.693901 181.397049,98.923904 181.914398,99.153915 
	C181.914398,99.153908 181.966751,99.062073 181.993668,99.332977 
	C182.325943,99.775314 182.631317,99.946762 182.936676,100.118210 
	C182.936676,100.118210 182.972992,100.029297 183.007721,100.303757 
	C183.342529,100.755066 183.642609,100.931908 183.942688,101.108757 
	C183.942688,101.108757 183.974503,101.021210 184.007706,101.299377 
	C184.341461,101.753922 184.641998,101.930290 184.942551,102.106667 
	C184.942551,102.106667 184.978195,102.020393 185.008209,102.300125 
	C185.338562,102.755058 185.638901,102.930260 185.939255,103.105461 
	C185.939255,103.105461 185.898270,103.030968 185.939362,103.374237 
	C186.592972,104.208206 187.205475,104.698906 187.817993,105.189606 
	C187.817993,105.189606 187.916718,105.148376 187.881836,105.426865 
	C188.226929,106.150002 188.606903,106.594658 188.986862,107.039314 
	C188.986862,107.039314 189.004105,106.999580 189.058380,107.254456 
	C189.394974,107.702400 189.677261,107.895470 189.959564,108.088539 
	C189.959564,108.088539 189.955093,108.004936 189.975266,108.346603 
	C190.646103,109.483788 191.296768,110.279305 191.947418,111.074829 
	C191.947418,111.074829 191.983856,110.997574 191.992432,111.337090 
	C192.629898,112.486183 193.258789,113.295753 193.887680,114.105331 
	C193.887680,114.105324 193.982346,114.037796 193.932800,114.372345 
	C194.223846,115.251114 194.564438,115.795326 194.905045,116.339539 
z"/>
<path fill="#824B3F" opacity="1.000000" stroke="none" 
	d="
M100.057755,150.846985 
	C100.057755,150.846985 100.047729,150.399612 99.996399,149.778412 
	C99.599632,142.116180 99.254204,135.075134 98.908775,128.034088 
	C98.908775,128.034088 99.056900,127.620689 99.293457,127.200729 
	C99.638290,126.200043 99.746559,125.619316 99.854828,125.038597 
	C102.695427,113.931305 109.472946,105.553780 118.961533,98.434433 
	C119.459274,99.415985 119.549088,100.772232 118.922226,101.553246 
	C116.650032,104.384216 114.137375,107.022194 111.454552,109.927437 
	C110.452988,111.407951 109.712326,112.694008 108.680283,114.158066 
	C107.208847,116.844643 106.028778,119.353218 104.594223,122.137497 
	C103.531136,127.956863 102.140762,133.494431 102.082520,139.045975 
	C102.027611,144.280426 103.375328,149.529587 104.085434,155.160995 
	C103.738808,157.364792 103.412758,159.179855 103.037842,160.609497 
	C102.340759,158.126999 101.692543,156.029922 101.044327,153.932861 
	C101.044327,153.932861 101.008614,153.992264 101.042709,153.645584 
	C100.737122,152.481598 100.397438,151.664291 100.057755,150.846985 
z"/>
<path fill="#7B4537" opacity="1.000000" stroke="none" 
	d="
M128.981186,185.205139 
	C128.981186,185.205139 128.554932,185.050476 128.132599,184.747467 
	C126.483940,183.943588 125.257599,183.442734 124.031258,182.941879 
	C124.031258,182.941879 123.997948,182.995712 123.887695,182.691620 
	C122.860939,181.904602 121.944435,181.421646 121.027939,180.938690 
	C121.027939,180.938690 120.999321,180.994064 120.930290,180.749451 
	C120.574112,180.330658 120.286964,180.156479 119.999817,179.982285 
	C119.999817,179.982285 119.998787,180.002029 119.868423,179.712128 
	C118.838913,178.921494 117.939781,178.420776 117.040642,177.920044 
	C117.040642,177.920044 117.004120,177.983688 116.945969,177.733246 
	C116.601021,177.295700 116.314232,177.108582 116.027435,176.921463 
	C116.027435,176.921463 116.009056,176.990891 115.950378,176.735168 
	C115.602509,176.295197 115.313324,176.110931 115.024139,175.926666 
	C115.024139,175.926666 115.006622,175.993500 114.944000,175.740662 
	C114.596573,175.299271 114.311768,175.110733 114.026955,174.922195 
	C114.026955,174.922195 114.009529,174.991577 113.961777,174.726700 
	C113.643547,174.258759 113.373055,174.055695 113.102570,173.852631 
	C113.102570,173.852631 113.104317,173.948563 113.121872,173.631531 
	C112.746101,172.899506 112.352768,172.484528 111.959442,172.069534 
	C111.915237,171.719009 111.751244,171.438553 111.154099,170.873474 
	C110.561638,170.317184 110.282532,170.115585 110.003426,169.913971 
	C109.957245,169.596848 109.803360,169.345718 109.295143,168.748108 
	C109.056458,167.903488 109.064407,167.471344 109.386024,167.031937 
	C110.117340,167.048950 110.534996,167.073227 111.129456,167.373032 
	C113.193512,169.515579 115.081047,171.382339 116.967979,173.249710 
	C130.228775,186.372986 145.643829,189.362854 163.329071,183.001221 
	C164.089096,182.651276 164.557953,182.344101 165.455902,182.016052 
	C167.321213,181.969742 168.757401,181.944321 170.023834,182.236664 
	C166.809784,184.121826 163.911896,186.508118 160.690353,187.084076 
	C154.220688,188.240738 147.574356,188.409348 140.730164,188.726807 
	C136.977814,187.624924 133.496262,186.781952 130.014709,185.938995 
	C130.014709,185.938995 130.000504,185.997894 129.923218,185.766663 
	C129.633041,185.228043 129.344788,185.117950 128.981186,185.205139 
z"/>
<path fill="#E9BB77" opacity="1.000000" stroke="none" 
	d="
M196.622375,163.557175 
	C196.239822,161.189575 195.245300,158.246506 196.002274,155.858643 
	C199.936996,143.446335 200.502975,131.175552 195.858185,118.463898 
	C197.563675,123.719017 200.511642,129.329498 200.678909,135.021667 
	C200.887344,142.115234 198.790436,149.274338 197.715240,156.409103 
	C197.373199,158.678848 197.114990,160.961227 196.622375,163.557175 
z"/>
<path fill="#E9BB77" opacity="1.000000" stroke="none" 
	d="
M141.000946,188.985733 
	C147.574356,188.409348 154.220688,188.240738 160.690353,187.084076 
	C163.911896,186.508118 166.809784,184.121826 170.229904,182.152740 
	C170.988388,181.516159 171.371033,181.281281 172.090103,181.101624 
	C175.212387,180.022354 177.998260,178.887894 180.857513,177.834045 
	C180.930923,177.914642 181.082016,178.071823 181.082016,178.071823 
	C178.351913,180.275391 175.922455,183.166595 172.821671,184.522385 
	C168.095398,186.588928 162.904587,187.593063 157.251770,189.134949 
	C156.304199,189.402786 156.106384,189.654984 155.999008,189.978149 
	C151.311798,189.984116 146.624588,189.990097 141.470154,189.740021 
	C141.002930,189.483963 141.000946,188.985733 141.000946,188.985733 
z"/>
<path fill="#855138" opacity="1.000000" stroke="none" 
	d="
M123.665268,94.829727 
	C124.929031,94.002342 126.192802,93.174965 128.031403,92.166122 
	C129.088608,91.667839 129.570969,91.351036 130.053345,91.034241 
	C130.053345,91.034241 130.004913,90.999519 130.334198,91.008125 
	C131.224136,90.724457 131.784775,90.432175 132.345413,90.139893 
	C132.345413,90.139900 132.688583,90.129982 133.170807,90.055443 
	C134.230698,89.704536 134.808380,89.428169 135.386063,89.151810 
	C135.386063,89.151802 135.696472,89.190514 136.232025,89.120522 
	C138.998001,88.416344 141.228409,87.782166 143.458817,87.147980 
	C143.458817,87.147980 143.709610,87.243713 144.142853,87.165176 
	C144.981384,86.988411 145.386703,86.890190 145.856750,86.856705 
	C145.921478,86.921440 146.050751,87.051086 145.997070,87.362350 
	C145.267029,88.451981 144.590668,89.230347 143.570435,90.008209 
	C142.472839,90.666084 141.719162,91.324478 140.619186,92.008881 
	C139.185028,92.397499 138.097137,92.760101 136.620026,93.072876 
	C133.798279,93.988846 131.365738,94.954636 128.919556,95.889580 
	C128.905884,95.858734 128.846375,95.826927 128.505798,95.832718 
	C127.503075,95.995888 126.840935,96.153275 125.968422,95.991402 
	C125.060455,95.391335 124.362862,95.110527 123.665268,94.829727 
z"/>
<path fill="#E9BB76" opacity="1.000000" stroke="none" 
	d="
M126.178802,96.310654 
	C126.840935,96.153275 127.503075,95.995888 128.520706,96.190910 
	C125.450066,99.325722 122.029305,102.114784 118.595818,104.888084 
	C116.436462,106.632256 114.258011,108.352798 111.994873,109.996292 
	C111.901634,109.908638 111.715454,109.732986 111.715454,109.732986 
	C114.137375,107.022194 116.650032,104.384216 118.922226,101.553246 
	C119.549088,100.772232 119.459274,99.415985 119.328094,98.415909 
	C118.957878,98.508148 118.975677,98.478996 119.391663,98.571281 
	C120.202934,98.101089 120.598221,97.538612 120.993500,96.976135 
	C120.993500,96.976135 120.999542,97.000610 121.143494,97.228539 
	C121.475670,97.450951 121.663895,97.445442 122.118027,97.609863 
	C123.648895,97.290085 124.913849,96.800369 126.178802,96.310654 
z"/>
<path fill="#EBC070" opacity="1.000000" stroke="none" 
	d="
M109.072357,167.039215 
	C109.064407,167.471344 109.056458,167.903488 109.087936,168.657944 
	C101.028900,166.847809 101.028900,166.847809 101.023117,154.398041 
	C101.692543,156.029922 102.340759,158.126999 102.996513,160.992050 
	C102.684059,166.212708 106.916183,165.432831 109.072357,167.039215 
z"/>
<path fill="#EBC070" opacity="1.000000" stroke="none" 
	d="
M98.636307,128.292877 
	C99.254204,135.075134 99.599632,142.116180 99.921997,149.567413 
	C96.198494,143.064087 96.136604,135.889877 98.636307,128.292877 
z"/>
<path fill="#EBC070" opacity="1.000000" stroke="none" 
	d="
M140.730164,188.726807 
	C141.000946,188.985733 141.002930,189.483963 141.004456,189.732864 
	C137.440659,188.853668 133.875320,187.725571 130.162354,186.268219 
	C133.496262,186.781952 136.977814,187.624924 140.730164,188.726807 
z"/>
<path fill="#E8BE69" opacity="1.000000" stroke="none" 
	d="
M162.779480,88.782211 
	C160.245789,88.662498 157.515533,88.235550 154.250320,87.775124 
	C153.715363,87.741646 153.520401,87.875587 153.339294,87.628754 
	C152.791901,87.214874 152.425598,87.047821 152.085419,86.905640 
	C152.111526,86.930519 152.151566,86.870216 152.095367,86.592560 
	C151.959076,85.947067 151.878967,85.579239 151.798859,85.211403 
	C155.393539,86.299263 158.988235,87.387115 162.779480,88.782211 
z"/>
<path fill="#E9BB77" opacity="1.000000" stroke="none" 
	d="
M193.055344,165.180389 
	C193.804596,165.166779 194.553864,165.153183 195.678085,165.147980 
	C193.955627,166.757294 191.858215,168.358200 189.325531,169.934692 
	C188.890259,169.910263 188.705704,169.745941 188.794342,169.475250 
	C189.003647,168.843765 189.124298,168.482956 189.496140,167.946732 
	C190.850006,166.907669 191.952682,166.044022 193.055344,165.180389 
z"/>
<path fill="#855138" opacity="1.000000" stroke="none" 
	d="
M151.816010,85.164474 
	C151.878967,85.579239 151.959076,85.947067 151.746490,86.507248 
	C149.652802,86.816765 147.851776,86.933922 146.050751,87.051086 
	C146.050751,87.051086 145.921478,86.921440 145.933563,86.575760 
	C146.014893,85.849144 146.084122,85.468208 146.153366,85.087265 
	C146.153366,85.087265 146.088837,85.028122 146.329697,84.981064 
	C146.736893,84.631821 146.903229,84.329628 147.069550,84.027435 
	C147.069550,84.027435 147.005554,84.005959 147.245697,83.934509 
	C147.769760,83.645020 147.917969,83.357124 147.930481,82.999367 
	C148.400040,82.947441 148.869598,82.895515 149.751740,83.163925 
	C150.426422,83.679855 150.688538,83.875450 150.950638,84.071045 
	C150.950638,84.071045 150.988800,83.999504 151.022980,84.282379 
	C151.347031,84.737701 151.636917,84.910164 151.926804,85.082619 
	C151.926804,85.082619 151.833176,85.117554 151.816010,85.164474 
z"/>
<path fill="#824B3F" opacity="1.000000" stroke="none" 
	d="
M125.968422,95.991394 
	C124.913849,96.800369 123.648895,97.290085 122.163727,97.199738 
	C121.934380,96.347260 121.925240,96.074844 121.916107,95.802429 
	C122.327576,95.502731 122.739052,95.203018 123.407898,94.866516 
	C124.362862,95.110527 125.060455,95.391335 125.968422,95.991394 
z"/>
<path fill="#E9BB77" opacity="1.000000" stroke="none" 
	d="
M187.097885,172.080460 
	C186.005661,173.402863 184.913437,174.725266 183.407410,176.022049 
	C182.993607,175.996429 182.897934,175.890366 183.050949,175.613922 
	C184.427048,174.183960 185.650116,173.030426 186.928650,171.928558 
	C186.984116,171.980240 187.097885,172.080460 187.097885,172.080460 
z"/>
<path fill="#E8BE69" opacity="1.000000" stroke="none" 
	d="
M143.024109,87.106216 
	C141.228409,87.782166 138.998001,88.416344 136.373993,89.054878 
	C138.183395,88.394295 140.386398,87.729370 143.024109,87.106216 
z"/>
<path fill="#EBC070" opacity="1.000000" stroke="none" 
	d="
M124.079926,183.312134 
	C125.257599,183.442734 126.483940,183.943588 127.907990,184.716583 
	C126.779991,184.553268 125.454292,184.117813 124.079926,183.312134 
z"/>
<path fill="#E8BE69" opacity="1.000000" stroke="none" 
	d="
M174.868637,93.773849 
	C173.689957,93.637451 172.492477,93.123253 171.108765,92.338791 
	C172.231628,92.511040 173.540726,92.953537 174.868637,93.773849 
z"/>
<path fill="#EBC070" opacity="1.000000" stroke="none" 
	d="
M117.074738,178.273956 
	C117.939781,178.420776 118.838913,178.921494 119.877838,179.708969 
	C119.048019,179.539764 118.078423,179.083817 117.074738,178.273956 
z"/>
<path fill="#EBC070" opacity="1.000000" stroke="none" 
	d="
M121.067284,181.293579 
	C121.944435,181.421646 122.860939,181.904602 123.914886,182.675507 
	C123.070419,182.525162 122.088524,182.086823 121.067284,181.293579 
z"/>
<path fill="#E9BB77" opacity="1.000000" stroke="none" 
	d="
M193.923279,113.738510 
	C193.258789,113.295753 192.629898,112.486183 191.957489,111.361664 
	C192.595612,111.821716 193.277252,112.596703 193.923279,113.738510 
z"/>
<path fill="#E9BB77" opacity="1.000000" stroke="none" 
	d="
M191.964203,110.709137 
	C191.296768,110.279305 190.646103,109.483788 189.945160,108.375687 
	C190.590240,108.823219 191.285614,109.583328 191.964203,110.709137 
z"/>
<path fill="#E8BE69" opacity="1.000000" stroke="none" 
	d="
M177.894073,95.757431 
	C177.002151,95.638062 176.091599,95.154739 175.034729,94.392670 
	C175.884079,94.540443 176.879761,94.966965 177.894073,95.757431 
z"/>
<path fill="#E9BB77" opacity="1.000000" stroke="none" 
	d="
M187.841125,104.841118 
	C187.205475,104.698906 186.592972,104.208206 185.920776,103.412468 
	C186.528809,103.569160 187.196533,104.030891 187.841125,104.841118 
z"/>
<path fill="#E8BE69" opacity="1.000000" stroke="none" 
	d="
M145.848694,85.167870 
	C146.084122,85.468208 146.014893,85.849144 145.868835,86.511032 
	C145.386703,86.890190 144.981384,86.988411 144.262177,87.103745 
	C144.480194,86.496727 145.012100,85.872604 145.848694,85.167870 
z"/>
<path fill="#EBC070" opacity="1.000000" stroke="none" 
	d="
M100.034897,151.205658 
	C100.397438,151.664291 100.737122,152.481598 101.077293,153.643311 
	C100.722527,153.179932 100.367279,152.372147 100.034897,151.205658 
z"/>
<path fill="#E8BE69" opacity="1.000000" stroke="none" 
	d="
M165.789185,89.787338 
	C165.110458,89.904816 164.237427,89.737617 163.146759,89.315048 
	C163.817703,89.207336 164.706299,89.354996 165.789185,89.787338 
z"/>
<path fill="#E8BE69" opacity="1.000000" stroke="none" 
	d="
M168.767700,90.842583 
	C168.083710,90.945580 167.225327,90.750168 166.152588,90.299774 
	C166.823242,90.211243 167.708282,90.377716 168.767700,90.842583 
z"/>
<path fill="#EBC070" opacity="1.000000" stroke="none" 
	d="
M111.993996,172.370667 
	C112.352768,172.484528 112.746101,172.899506 113.164032,173.608612 
	C112.801933,173.492432 112.415245,173.082123 111.993996,172.370667 
z"/>
<path fill="#E8BE69" opacity="1.000000" stroke="none" 
	d="
M129.748581,91.036072 
	C129.570969,91.351036 129.088608,91.667839 128.304840,91.988678 
	C128.483551,91.674446 128.963684,91.356178 129.748581,91.036072 
z"/>
<path fill="#E8BE69" opacity="1.000000" stroke="none" 
	d="
M170.813324,91.824554 
	C170.382202,91.946213 169.798599,91.792992 169.055908,91.377884 
	C169.484818,91.260567 170.072845,91.405113 170.813324,91.824554 
z"/>
<path fill="#E8BE69" opacity="1.000000" stroke="none" 
	d="
M132.002716,90.109795 
	C131.784775,90.432175 131.224136,90.724457 130.338196,91.037643 
	C130.561935,90.732269 131.110977,90.405983 132.002716,90.109795 
z"/>
<path fill="#855138" opacity="1.000000" stroke="none" 
	d="
M120.621895,96.935143 
	C120.598221,97.538612 120.202934,98.101089 119.407486,98.564224 
	C119.421646,97.941299 119.835968,97.417725 120.621895,96.935143 
z"/>
<path fill="#E8BE69" opacity="1.000000" stroke="none" 
	d="
M181.802368,98.876907 
	C181.397049,98.923904 180.879715,98.693901 180.223724,98.208237 
	C180.620163,98.168343 181.155243,98.384117 181.802368,98.876907 
z"/>
<path fill="#E9BB77" opacity="1.000000" stroke="none" 
	d="
M188.975006,106.726181 
	C188.606903,106.594658 188.226929,106.150002 187.834000,105.402946 
	C188.201721,105.538040 188.582428,105.975540 188.975006,106.726181 
z"/>
<path fill="#E8BE69" opacity="1.000000" stroke="none" 
	d="
M135.043243,89.117416 
	C134.808380,89.428169 134.230698,89.704536 133.326019,89.982117 
	C133.566162,89.683220 134.133301,89.383118 135.043243,89.117416 
z"/>
<path fill="#E9BB77" opacity="1.000000" stroke="none" 
	d="
M194.923477,115.992081 
	C194.564438,115.795326 194.223846,115.251114 193.875122,114.379669 
	C194.225296,114.583168 194.583603,115.113899 194.923477,115.992081 
z"/>
<path fill="#EBC070" opacity="1.000000" stroke="none" 
	d="
M99.622139,125.231483 
	C99.746559,125.619316 99.638290,126.200043 99.301224,126.981293 
	C99.178093,126.596001 99.283768,126.010185 99.622139,125.231483 
z"/>
<path fill="#E9BB77" opacity="1.000000" stroke="none" 
	d="
M188.980728,169.994385 
	C188.943787,170.382599 188.753830,170.640610 188.221100,170.899384 
	C187.940872,170.946182 187.796417,170.799911 187.898575,170.585510 
	C188.178787,170.098541 188.413773,169.890152 188.705704,169.745941 
	C188.705704,169.745941 188.890259,169.910263 188.980728,169.994385 
z"/>
<path fill="#E9BB77" opacity="1.000000" stroke="none" 
	d="
M188.011444,171.020920 
	C187.953812,171.393158 187.761917,171.641388 187.302094,171.960419 
	C187.097885,172.080460 186.984116,171.980240 187.029724,171.707764 
	C187.251144,171.150238 187.491516,170.938446 187.796417,170.799911 
	C187.796417,170.799911 187.940872,170.946182 188.011444,171.020920 
z"/>
<path fill="#EBC070" opacity="1.000000" stroke="none" 
	d="
M113.171844,174.109009 
	C113.373055,174.055695 113.643547,174.258759 113.996422,174.717804 
	C113.799583,174.770996 113.520355,174.568192 113.171844,174.109009 
z"/>
<path fill="#EBC070" opacity="1.000000" stroke="none" 
	d="
M114.123856,175.165009 
	C114.311768,175.110733 114.596573,175.299271 114.977386,175.731750 
	C114.789169,175.786392 114.504967,175.597107 114.123856,175.165009 
z"/>
<path fill="#EBC070" opacity="1.000000" stroke="none" 
	d="
M115.123039,176.168640 
	C115.313324,176.110931 115.602509,176.295197 115.985077,176.725922 
	C115.792953,176.785141 115.507446,176.597870 115.123039,176.168640 
z"/>
<path fill="#E9BB77" opacity="1.000000" stroke="none" 
	d="
M183.040192,176.050552 
	C182.948700,176.401566 182.750717,176.650879 182.226059,176.907318 
	C181.959274,176.962021 181.844727,176.841293 181.962601,176.626068 
	C182.295883,176.147690 182.568375,175.974197 182.897934,175.890366 
	C182.897934,175.890366 182.993607,175.996429 183.040192,176.050552 
z"/>
<path fill="#EBC070" opacity="1.000000" stroke="none" 
	d="
M116.124992,177.164215 
	C116.314232,177.108582 116.601021,177.295700 116.982315,177.728302 
	C116.792061,177.784851 116.507309,177.595917 116.124992,177.164215 
z"/>
<path fill="#E9BB77" opacity="1.000000" stroke="none" 
	d="
M182.015198,177.023651 
	C181.941467,177.383118 181.748199,177.631424 181.286682,177.951019 
	C181.082016,178.071823 180.930923,177.914642 180.986816,177.632782 
	C181.266907,177.113190 181.534256,176.943298 181.844727,176.841293 
	C181.844727,176.841293 181.959274,176.962021 182.015198,177.023651 
z"/>
<path fill="#EBC070" opacity="1.000000" stroke="none" 
	d="
M120.106018,180.214478 
	C120.286964,180.156479 120.574112,180.330658 120.960831,180.743286 
	C120.777679,180.803360 120.494957,180.625000 120.106018,180.214478 
z"/>
<path fill="#EBC070" opacity="1.000000" stroke="none" 
	d="
M129.113495,185.392410 
	C129.344788,185.117950 129.633041,185.228043 129.951630,185.756165 
	C129.740616,185.938934 129.470108,185.806519 129.113495,185.392410 
z"/>
<path fill="#EBC070" opacity="1.000000" stroke="none" 
	d="
M156.220917,189.883850 
	C156.106384,189.654984 156.304199,189.402786 156.823242,189.139526 
	C156.922897,189.362137 156.719162,189.606171 156.220917,189.883850 
z"/>
<path fill="#E8BE69" opacity="1.000000" stroke="none" 
	d="
M147.717316,83.117279 
	C147.917969,83.357124 147.769760,83.645020 147.257935,83.965950 
	C147.083984,83.731735 147.242020,83.453850 147.717316,83.117279 
z"/>
<path fill="#E9BB77" opacity="1.000000" stroke="none" 
	d="
M184.854050,101.856812 
	C184.641998,101.930290 184.341461,101.753922 183.965088,101.318184 
	C184.181366,101.241539 184.473465,101.424255 184.854050,101.856812 
z"/>
<path fill="#E9BB77" opacity="1.000000" stroke="none" 
	d="
M195.862305,117.864647 
	C195.664505,117.896698 195.406143,117.685921 195.115021,117.211838 
	C195.322098,117.172951 195.561935,117.397385 195.862305,117.864647 
z"/>
<path fill="#E9BB77" opacity="1.000000" stroke="none" 
	d="
M189.874725,107.842346 
	C189.677261,107.895470 189.394974,107.702400 189.036774,107.255981 
	C189.237228,107.200478 189.513550,107.398315 189.874725,107.842346 
z"/>
<path fill="#E9BB77" opacity="1.000000" stroke="none" 
	d="
M185.851746,102.856216 
	C185.638901,102.930260 185.338562,102.755058 184.965424,102.318802 
	C185.183182,102.240822 185.473709,102.423897 185.851746,102.856216 
z"/>
<path fill="#E9BB77" opacity="1.000000" stroke="none" 
	d="
M183.852478,100.859207 
	C183.642609,100.931908 183.342529,100.755066 182.962860,100.320869 
	C183.176254,100.245567 183.469269,100.427620 183.852478,100.859207 
z"/>
<path fill="#E9BB77" opacity="1.000000" stroke="none" 
	d="
M182.847443,99.866783 
	C182.631317,99.946762 182.325943,99.775314 181.942322,99.345505 
	C182.162109,99.263206 182.460144,99.439285 182.847443,99.866783 
z"/>
<path fill="#E8BE69" opacity="1.000000" stroke="none" 
	d="
M179.910004,97.701447 
	C179.678558,97.884285 179.397736,97.731796 179.079285,97.232742 
	C179.305740,97.070541 179.578720,97.230522 179.910004,97.701447 
z"/>
<path fill="#E8BE69" opacity="1.000000" stroke="none" 
	d="
M178.883148,96.792152 
	C178.690018,96.865471 178.389282,96.705551 177.996155,96.301514 
	C178.194366,96.224556 178.484955,96.391731 178.883148,96.792152 
z"/>
<path fill="#855138" opacity="1.000000" stroke="none" 
	d="
M121.655151,95.910454 
	C121.925240,96.074844 121.934380,96.347260 121.897812,97.029800 
	C121.663895,97.445442 121.475670,97.450951 121.136414,97.217758 
	C121.121658,96.658859 121.257935,96.338669 121.655151,95.910454 
z"/>
<path fill="#E8BE69" opacity="1.000000" stroke="none" 
	d="
M151.843399,84.840118 
	C151.636917,84.910164 151.347031,84.737701 150.990356,84.306465 
	C151.202362,84.230995 151.481186,84.414307 151.843399,84.840118 
z"/>
<path fill="#E8BE69" opacity="1.000000" stroke="none" 
	d="
M146.829269,84.129944 
	C146.903229,84.329628 146.736893,84.631821 146.323730,85.024422 
	C146.247589,84.820702 146.418289,84.526573 146.829269,84.129944 
z"/>
<path fill="#EBC070" opacity="1.000000" stroke="none" 
	d="
M110.097343,170.158249 
	C110.282532,170.115585 110.561638,170.317184 110.929199,170.765945 
	C110.742195,170.809570 110.466728,170.606049 110.097343,170.158249 
z"/>
<path fill="#E8BE69" opacity="1.000000" stroke="none" 
	d="
M150.874191,83.835342 
	C150.688538,83.875450 150.426422,83.679855 150.100677,83.238945 
	C150.367935,83.098579 150.621506,83.300583 150.874191,83.835342 
z"/>
<path fill="#F2CB5A" opacity="1.000000" stroke="none" 
	d="
M163.272263,92.902557 
	C174.418427,96.386009 182.642990,103.517418 188.404999,113.650940 
	C186.235992,114.003143 184.327972,113.670197 182.587173,114.068382 
	C175.733719,115.636063 168.932831,117.433617 161.804108,118.844482 
	C161.333817,116.442245 161.311508,114.319008 160.979401,112.245399 
	C160.378510,108.493523 159.592758,104.771263 158.827438,100.861237 
	C158.770660,100.685829 158.768265,100.317108 158.839066,99.946526 
	C158.537720,98.760414 158.165573,97.944878 157.770203,97.125259 
	C157.746994,97.121178 157.703491,97.141380 157.794403,96.728523 
	C157.661011,91.989845 160.958664,93.222778 163.272263,92.902557 
z"/>
<path fill="#F1C95E" opacity="1.000000" stroke="none" 
	d="
M191.256165,117.904694 
	C197.299728,129.682877 197.144958,141.781860 192.847076,154.482208 
	C192.565689,154.883698 192.182770,154.927765 192.071854,154.682510 
	C191.671021,154.246140 191.381119,154.055008 191.114670,153.903198 
	C191.138138,153.942490 191.138840,153.850937 191.005096,153.544586 
	C188.597137,150.801346 186.322922,148.364471 184.025513,145.955658 
	C184.002350,145.983719 184.074234,145.972305 183.976501,145.731445 
	C183.594620,145.304977 183.310471,145.119354 183.023621,144.967911 
	C183.020905,145.002090 183.071915,144.956253 183.005707,144.644623 
	C182.317398,143.860367 181.695297,143.387726 181.041290,142.920868 
	C181.009369,142.926636 181.070099,142.948471 181.000305,142.706390 
	C180.630905,142.353638 180.331299,142.242966 179.744843,141.983459 
	C178.567673,141.249939 177.677353,140.665253 176.743896,139.840744 
	C176.509384,139.325226 176.259460,139.121277 175.956146,138.619370 
	C175.601685,137.089249 175.242050,135.928864 175.014694,134.534271 
	C175.693588,133.840363 176.240219,133.380676 177.054321,132.869965 
	C177.576538,132.569931 177.831253,132.320923 178.287872,131.948456 
	C178.743011,131.625351 178.937500,131.379257 179.425720,131.019745 
	C180.500107,129.610748 181.222000,128.268707 181.974426,126.943871 
	C182.004990,126.961067 181.934937,126.962700 182.175278,126.872833 
	C182.603882,126.505676 182.792145,126.228371 182.983505,125.978577 
	C182.986618,126.006096 182.946259,125.968155 183.309631,125.948112 
	C184.442673,124.609749 185.212372,123.291435 185.992310,121.986107 
	C186.002563,121.999100 185.970261,121.992798 186.229858,121.842041 
	C186.667358,121.134483 186.845291,120.577682 187.011917,120.010742 
	C187.000610,120.000610 187.025467,120.022514 187.364746,119.987274 
	C188.888077,119.269577 190.072113,118.587135 191.256165,117.904694 
z"/>
<path fill="#8F4F55" opacity="1.000000" stroke="none" 
	d="
M162.112442,119.145859 
	C168.932831,117.433617 175.733719,115.636063 182.587173,114.068382 
	C184.327972,113.670197 186.235992,114.003143 188.529526,113.963593 
	C188.991867,113.927055 189.014221,114.384010 188.939636,114.963058 
	C188.251846,117.035583 187.638657,118.529053 187.025467,120.022514 
	C187.025467,120.022514 187.000610,120.000610 186.767914,120.176918 
	C186.346909,120.899750 186.158585,121.446274 185.970261,121.992798 
	C185.970261,121.992798 186.002563,121.999100 185.700363,122.137527 
	C184.580856,123.506683 183.763565,124.737419 182.946259,125.968155 
	C182.946259,125.968155 182.986618,126.006096 182.736435,126.059113 
	C182.302475,126.395653 182.118698,126.679176 181.934937,126.962692 
	C181.934937,126.962700 182.004990,126.961067 181.748138,126.969551 
	C181.491272,126.978035 181.043411,127.062302 181.028992,126.654587 
	C181.297409,122.181107 179.795883,117.998901 176.044662,117.535759 
	C172.596375,117.110031 167.717575,118.567268 165.441833,121.023125 
	C163.072586,123.579857 163.064911,128.324997 161.646194,132.129547 
	C160.794403,131.216583 159.806549,130.206467 159.937622,129.372162 
	C160.477753,125.934357 161.357544,122.549919 162.112442,119.145859 
z"/>
<path fill="#7F3E61" opacity="1.000000" stroke="none" 
	d="
M192.182770,154.927765 
	C192.182770,154.927765 192.565689,154.883698 192.756866,154.852417 
	C193.071014,158.010651 193.193985,161.200134 193.186157,164.785004 
	C191.952682,166.044022 190.850006,166.907669 189.178619,167.809692 
	C187.988907,167.559143 187.367950,167.270172 186.693390,166.757080 
	C186.458023,166.279739 186.235825,166.069168 185.730011,165.641998 
	C184.539536,165.310135 183.592239,165.237549 182.478851,165.215652 
	C182.312744,165.266342 181.973373,165.192245 182.147552,164.887451 
	C183.604858,162.325546 184.649704,159.878922 186.246307,157.871078 
	C187.530853,156.255661 189.482941,155.171066 191.138840,153.850952 
	C191.138840,153.850937 191.138138,153.942490 191.202667,154.163208 
	C191.572388,154.565216 191.877579,154.746490 192.182770,154.927765 
z"/>
<path fill="#7D3D61" opacity="1.000000" stroke="none" 
	d="
M145.997070,87.362350 
	C147.851776,86.933922 149.652802,86.816765 151.802704,86.784912 
	C152.151566,86.870216 152.111526,86.930519 152.232605,87.186432 
	C152.742584,87.586754 153.131485,87.731171 153.520401,87.875587 
	C153.520401,87.875587 153.715363,87.741646 153.829254,87.769073 
	C154.216599,88.331909 154.490036,88.867332 154.624344,89.861382 
	C154.739960,91.850121 154.994705,93.380234 154.776581,94.939865 
	C150.542770,95.319710 146.781815,95.670044 143.055359,95.639557 
	C143.364670,93.508728 143.639496,91.758728 143.914322,90.008720 
	C144.590668,89.230347 145.267029,88.451981 145.997070,87.362350 
z"/>
<path fill="#DDAA7B" opacity="1.000000" stroke="none" 
	d="
M155.249451,94.910347 
	C154.994705,93.380234 154.739960,91.850121 154.767181,90.125275 
	C157.609512,90.751045 160.169876,91.571556 163.001251,92.647308 
	C160.958664,93.222778 157.661011,91.989845 157.585052,96.520935 
	C156.606339,96.120918 155.927902,95.515633 155.249451,94.910347 
z"/>
<path fill="#E7B376" opacity="1.000000" stroke="none" 
	d="
M187.364746,119.987274 
	C187.638657,118.529053 188.251846,117.035583 188.926666,115.191452 
	C189.689194,115.647575 190.390091,116.454361 191.173584,117.582916 
	C190.072113,118.587135 188.888077,119.269577 187.364746,119.987274 
z"/>
<path fill="#854460" opacity="1.000000" stroke="none" 
	d="
M109.386017,167.031937 
	C106.916183,165.432831 102.684059,166.212708 103.045372,161.377487 
	C103.412758,159.179855 103.738808,157.364792 104.369125,155.215775 
	C105.057808,154.875412 105.442223,154.869003 106.100548,154.759598 
	C106.522789,154.307022 106.671120,153.957413 106.843918,153.467239 
	C106.868385,153.326675 107.013107,153.080734 107.238884,152.944580 
	C107.617821,152.502945 107.770981,152.197449 107.963989,151.921539 
	C108.003845,151.951096 107.906731,151.930740 108.150444,151.847046 
	C108.541977,151.467514 108.689789,151.171707 108.892639,150.861221 
	C108.947662,150.846558 108.832527,150.847321 109.122711,150.751190 
	C109.617119,150.103592 109.821327,149.552155 110.152496,148.747086 
	C110.831108,147.986649 111.382759,147.479843 112.279419,146.990326 
	C113.082672,147.001770 113.540924,146.995926 114.000595,147.435974 
	C112.638390,158.848190 119.113831,164.459518 127.369736,160.958649 
	C129.457321,160.606552 131.169739,160.294220 132.682632,160.260483 
	C128.299103,162.028275 124.153221,163.639313 119.917976,164.964767 
	C116.993484,165.880020 113.945457,166.400574 110.952644,167.097519 
	C110.534996,167.073227 110.117340,167.048950 109.386017,167.031937 
z"/>
<path fill="#E7B782" opacity="1.000000" stroke="none" 
	d="
M107.013107,153.080734 
	C107.013107,153.080734 106.868385,153.326675 106.621513,153.629150 
	C106.191971,154.241943 106.009293,154.552261 105.826630,154.862579 
	C105.442223,154.869003 105.057808,154.875412 104.389709,154.827057 
	C103.375328,149.529587 102.027611,144.280426 102.082520,139.045975 
	C102.140762,133.494431 103.531136,127.956863 104.664139,122.196777 
	C104.988548,121.980370 105.132095,122.094406 105.097748,122.508026 
	C104.384712,128.799728 103.057472,134.699905 103.256683,140.548065 
	C103.388199,144.409180 105.713676,148.195541 107.035629,152.281311 
	C107.013985,152.725067 107.013542,152.902893 107.013107,153.080734 
z"/>
<path fill="#E9BB76" opacity="1.000000" stroke="none" 
	d="
M108.971664,113.980072 
	C109.712326,112.694008 110.452988,111.407951 111.454552,109.927437 
	C111.715454,109.732986 111.901634,109.908638 111.985428,110.399284 
	C113.443741,111.595604 114.747101,112.592682 116.206894,112.949135 
	C119.764503,113.817848 123.394623,114.389626 126.557587,115.079849 
	C120.413078,114.719101 114.706543,114.359474 108.994324,113.995735 
	C108.988647,113.991631 108.971664,113.980072 108.971664,113.980072 
z"/>
<path fill="#E9BB76" opacity="1.000000" stroke="none" 
	d="
M104.918625,121.921082 
	C106.028778,119.353218 107.208847,116.844643 108.680283,114.158066 
	C108.971664,113.980072 108.988647,113.991631 108.970787,114.382233 
	C109.408798,116.480949 109.864662,118.189064 109.945770,119.928513 
	C108.091362,120.671364 106.611725,121.382881 105.132095,122.094406 
	C105.132095,122.094406 104.988548,121.980370 104.918625,121.921082 
z"/>
<path fill="#EBBC72" opacity="1.000000" stroke="none" 
	d="
M111.129456,167.373032 
	C113.945457,166.400574 116.993484,165.880020 119.917976,164.964767 
	C124.153221,163.639313 128.299103,162.028275 132.936768,160.198547 
	C133.603500,159.594299 133.816574,159.330566 134.369049,159.005707 
	C137.152557,156.656021 139.596680,154.367462 142.342590,151.920929 
	C144.679779,149.156067 146.715195,146.549225 148.664551,144.052567 
	C151.634460,147.628510 154.296875,150.834213 157.112305,154.337708 
	C159.868835,156.734482 162.472305,158.833450 164.671997,160.961868 
	C163.024536,161.965302 161.287613,162.691986 160.647522,163.968597 
	C159.564194,166.129288 159.344330,168.703888 158.455444,170.985229 
	C156.830704,175.155182 154.982620,179.238083 153.001221,183.888855 
	C156.835419,183.506241 159.884445,183.201965 162.959167,182.934555 
	C162.984879,182.971420 163.037903,183.043991 163.037903,183.043991 
	C145.643829,189.362854 130.228775,186.372986 116.967979,173.249710 
	C115.081047,171.382339 113.193512,169.515579 111.129456,167.373032 
M150.079041,151.980118 
	C150.079041,151.980118 150.093292,151.919220 150.018799,151.245804 
	C149.034195,151.498093 148.049606,151.750381 146.565857,152.182434 
	C146.376328,152.471191 146.186798,152.759964 145.435303,153.324707 
	C144.982147,154.213501 144.528992,155.102295 143.993088,155.997406 
	C143.993088,155.997406 143.997208,156.080307 143.389404,156.378342 
	C141.893906,158.577423 140.398407,160.776520 138.378784,162.552582 
	C137.588867,162.089401 136.593277,161.052368 136.040375,161.250534 
	C129.477203,163.602661 122.980026,166.138977 116.458389,168.629669 
	C119.665863,176.669830 135.422379,185.202408 144.758926,183.304443 
	C144.826370,181.934799 144.898010,180.480011 145.601562,179.294662 
	C146.683914,180.609451 147.766266,181.924240 149.620728,184.176956 
	C152.056519,179.483170 153.999985,175.738129 156.100693,171.437546 
	C156.101822,171.053558 156.102966,170.669571 156.591003,169.858643 
	C156.721436,169.236206 156.851852,168.613785 156.992157,168.002197 
	C156.992157,168.002197 157.005844,168.000458 157.582657,167.532669 
	C160.152588,162.380890 158.179504,158.620544 153.945847,155.512726 
	C152.903000,154.747192 151.963745,153.840530 150.825729,152.504837 
	C150.564621,152.313034 150.303513,152.121246 150.079041,151.980118 
z"/>
<path fill="#EBBC72" opacity="1.000000" stroke="none" 
	d="
M171.753693,181.046417 
	C171.371033,181.281281 170.988388,181.516159 170.399658,181.834961 
	C168.757401,181.944321 167.321213,181.969742 165.434448,181.984344 
	C164.983902,181.973511 164.941330,181.909821 165.170715,181.654419 
	C167.608047,180.590714 169.815994,179.782394 171.951660,179.315186 
	C171.837479,180.119659 171.795578,180.583038 171.753693,181.046417 
z"/>
<path fill="#EBBC72" opacity="1.000000" stroke="none" 
	d="
M165.005356,182.005219 
	C164.557953,182.344101 164.089096,182.651276 163.329071,183.001221 
	C163.037903,183.043991 162.984879,182.971420 163.146301,182.712555 
	C163.852249,182.272385 164.396790,182.091095 164.941330,181.909821 
	C164.941330,181.909821 164.983902,181.973511 165.005356,182.005219 
z"/>
<path fill="#844E3A" opacity="1.000000" stroke="none" 
	d="
M172.090118,181.101624 
	C171.795578,180.583038 171.837479,180.119659 172.258728,179.201553 
	C174.453018,177.613434 176.267960,176.480057 178.364075,175.237625 
	C179.081207,174.740295 179.517181,174.352020 179.973465,173.983566 
	C179.993774,174.003372 179.973816,173.950562 180.216965,173.879456 
	C180.657043,173.542999 180.853958,173.277649 181.025116,173.004807 
	C180.999344,172.997314 181.011108,173.049683 181.256668,172.960648 
	C181.693649,172.590027 181.885071,172.308456 182.042786,172.018097 
	C182.009094,172.009338 182.027466,172.076508 182.271942,171.981567 
	C182.703445,171.600037 182.890488,171.313416 183.050690,171.032974 
	C183.023865,171.039139 183.061340,171.081955 183.345825,170.941956 
	C184.669205,169.528381 185.708099,168.254791 186.746994,166.981201 
	C187.367950,167.270172 187.988907,167.559143 188.927399,167.985138 
	C189.124298,168.482956 189.003647,168.843765 188.794342,169.475250 
	C188.413773,169.890152 188.178787,170.098541 187.898575,170.585510 
	C187.491516,170.938446 187.251144,171.150238 186.974243,171.656082 
	C185.650116,173.030426 184.427048,174.183960 183.050949,175.613922 
	C182.568375,175.974197 182.295883,176.147690 181.962601,176.626068 
	C181.534256,176.943298 181.266907,177.113190 180.913406,177.552185 
	C177.998260,178.887894 175.212387,180.022354 172.090118,181.101624 
z"/>
<path fill="#F4CF54" opacity="1.000000" stroke="none" 
	d="
M126.995544,115.080971 
	C123.394623,114.389626 119.764503,113.817848 116.206894,112.949135 
	C114.747101,112.592682 113.443741,111.595604 112.078674,110.486938 
	C114.258011,108.352798 116.436462,106.632256 118.595818,104.888084 
	C122.029305,102.114784 125.450066,99.325722 128.861298,96.185120 
	C128.846375,95.826927 128.905884,95.858734 129.312164,95.923149 
	C132.148712,95.032608 134.578995,94.077652 137.009262,93.122696 
	C138.097137,92.760101 139.185028,92.397499 140.653625,92.400253 
	C140.433105,95.194084 139.831894,97.622574 138.908630,100.230049 
	C138.384262,101.599213 138.181961,102.789391 137.691162,104.279488 
	C137.265274,107.832748 137.310501,111.109283 136.901566,114.328125 
	C136.735672,115.633957 135.580627,116.814125 134.679886,117.960815 
	C134.225250,117.717720 134.042862,117.500954 133.776337,116.906967 
	C132.721985,116.413765 131.828232,116.233452 130.963913,116.031311 
	C130.993362,116.009476 130.980682,116.081688 130.768280,115.785202 
	C129.598862,115.371429 128.641861,115.254135 127.510178,115.151794 
	C127.335510,115.166740 126.995544,115.080971 126.995544,115.080971 
z"/>
<path fill="#93594A" opacity="1.000000" stroke="none" 
	d="
M139.230682,100.051056 
	C139.831894,97.622574 140.433105,95.194084 140.999908,92.374237 
	C141.719162,91.324478 142.472839,90.666084 143.570435,90.008209 
	C143.639496,91.758728 143.364670,93.508728 143.004303,96.000443 
	C142.285553,98.832443 141.652344,100.922737 141.005295,103.361160 
	C140.355576,104.505318 139.719681,105.301338 139.058182,105.737228 
	C139.011993,104.896706 138.991425,104.416313 138.970932,103.546387 
	C139.057571,102.121582 139.144119,101.086319 139.230682,100.051056 
z"/>
<path fill="#E9BB76" opacity="1.000000" stroke="none" 
	d="
M136.620026,93.072876 
	C134.578995,94.077652 132.148712,95.032608 129.325836,95.953995 
	C131.365738,94.954636 133.798279,93.988846 136.620026,93.072876 
z"/>
<path fill="#834D3D" opacity="1.000000" stroke="none" 
	d="
M153.339294,87.628754 
	C153.131485,87.731171 152.742584,87.586754 152.206482,87.161560 
	C152.425598,87.047821 152.791901,87.214874 153.339294,87.628754 
z"/>
<path fill="#E7B376" opacity="1.000000" stroke="none" 
	d="
M161.804108,118.844482 
	C161.357544,122.549919 160.477753,125.934357 159.937622,129.372162 
	C159.806549,130.206467 160.794403,131.216583 161.984558,132.280411 
	C166.761719,133.199478 170.822052,133.983978 174.882416,134.768478 
	C175.242050,135.928864 175.601685,137.089249 175.575500,138.638245 
	C173.112274,138.352219 171.034912,137.677597 168.712952,136.704498 
	C163.822327,135.769409 159.176300,135.132782 154.301758,134.464844 
	C155.509308,130.987473 156.723984,127.489578 158.103546,123.702629 
	C158.365082,122.007927 158.489456,120.603554 158.553238,119.196426 
	C158.754868,114.748215 158.933823,110.298973 159.118286,105.447662 
	C159.038086,103.709000 158.961151,102.372818 158.884216,101.036636 
	C159.592758,104.771263 160.378510,108.493523 160.979401,112.245399 
	C161.311508,114.319008 161.333817,116.442245 161.804108,118.844482 
z"/>
<path fill="#884564" opacity="1.000000" stroke="none" 
	d="
M158.827438,100.861237 
	C158.961151,102.372818 159.038086,103.709000 159.072479,105.826500 
	C158.686829,107.737686 158.343719,108.867546 158.000824,109.588142 
	C158.041122,105.670517 157.442841,102.253555 153.153183,102.108688 
	C149.123260,101.972603 145.064957,102.677925 141.019135,103.013031 
	C141.652344,100.922737 142.285553,98.832443 142.969818,96.381271 
	C146.781815,95.670044 150.542770,95.319710 154.776581,94.939865 
	C155.927902,95.515633 156.606339,96.120918 157.494141,96.933792 
	C157.703491,97.141380 157.746994,97.121178 157.768433,97.467819 
	C158.115997,98.648682 158.442139,99.482895 158.768265,100.317108 
	C158.768265,100.317108 158.770660,100.685829 158.827438,100.861237 
z"/>
<path fill="#DDAA7B" opacity="1.000000" stroke="none" 
	d="
M158.839066,99.946526 
	C158.442139,99.482895 158.115997,98.648682 157.791656,97.471909 
	C158.165573,97.944878 158.537720,98.760414 158.839066,99.946526 
z"/>
<path fill="#985363" opacity="1.000000" stroke="none" 
	d="
M175.014679,134.534271 
	C170.822052,133.983978 166.761719,133.199478 162.363007,132.264099 
	C163.064911,128.324997 163.072586,123.579857 165.441833,121.023125 
	C167.717575,118.567268 172.596375,117.110031 176.044662,117.535759 
	C179.795883,117.998901 181.297409,122.181107 181.014603,126.634552 
	C181.014618,127.022217 181.059616,127.016197 180.822937,127.119751 
	C180.397324,127.503960 180.208389,127.784599 180.011414,128.034424 
	C180.003372,128.003586 180.065338,128.018494 179.821533,128.131012 
	C179.394516,128.543579 179.211304,128.843628 178.996780,129.373413 
	C178.965454,129.603149 178.831909,130.047226 178.642212,130.158661 
	C178.225388,130.474060 178.075958,130.724411 178.001038,131.009613 
	C177.997879,130.998062 178.021149,131.003708 177.796814,131.107635 
	C177.291916,131.408646 177.099899,131.670624 176.954681,132.230804 
	C176.912918,132.464096 176.786835,132.920990 176.786835,132.920990 
	C176.240219,133.380676 175.693588,133.840363 175.014679,134.534271 
z"/>
<path fill="#9B5366" opacity="1.000000" stroke="none" 
	d="
M168.957535,137.002975 
	C171.034912,137.677597 173.112274,138.352219 175.570312,139.007965 
	C176.259460,139.121277 176.509384,139.325226 176.452942,140.019043 
	C173.963593,144.919113 171.750305,149.415512 169.467957,153.876602 
	C168.401871,155.960358 167.202179,157.975769 166.048019,160.210251 
	C166.032990,160.398346 166.023514,160.776367 165.780182,160.819809 
	C165.536850,160.863251 165.045853,160.920715 165.040176,160.938278 
	C165.034500,160.955841 165.075790,160.932419 165.075790,160.932419 
	C162.472305,158.833450 159.868835,156.734482 157.159088,153.987946 
	C160.743164,148.909134 164.137100,144.357483 165.290558,138.457397 
	C165.426865,137.760284 167.683685,137.477722 168.957535,137.002975 
z"/>
<path fill="#914C67" opacity="1.000000" stroke="none" 
	d="
M166.063049,160.022156 
	C167.202179,157.975769 168.401871,155.960358 169.467957,153.876602 
	C171.750305,149.415512 173.963593,144.919113 176.496094,140.258850 
	C177.677353,140.665253 178.567673,141.249939 179.863678,142.179443 
	C180.486725,142.759155 180.753632,142.900558 181.070099,142.948471 
	C181.070099,142.948471 181.009369,142.926636 181.057129,143.256104 
	C181.760559,144.042465 182.416245,144.499359 183.071915,144.956253 
	C183.071915,144.956253 183.020905,145.002090 183.125763,145.205505 
	C183.511810,145.596710 183.793030,145.784500 184.074234,145.972305 
	C184.074234,145.972305 184.002350,145.983719 184.007965,146.361786 
	C182.545166,149.759064 181.060532,152.770493 179.612167,155.799255 
	C177.465897,160.287460 174.190414,162.814850 168.698883,161.986206 
	C168.263443,161.880524 168.095383,161.815247 167.812866,161.580734 
	C167.497665,161.212341 167.258133,161.087723 166.983459,161.019379 
	C166.987152,161.001114 166.961380,161.030060 166.875397,160.811111 
	C166.615402,160.315369 166.373276,160.125366 166.063049,160.022156 
z"/>
<path fill="#884761" opacity="1.000000" stroke="none" 
	d="
M168.966293,162.026611 
	C174.190414,162.814850 177.465897,160.287460 179.612167,155.799255 
	C181.060532,152.770493 182.545166,149.759064 184.031143,146.333740 
	C186.322922,148.364471 188.597137,150.801346 191.005096,153.544586 
	C189.482941,155.171066 187.530853,156.255661 186.246307,157.871078 
	C184.649704,159.878922 183.604858,162.325546 181.722351,164.898712 
	C177.412247,164.515610 173.701523,163.816467 169.788101,163.041977 
	C169.585388,162.966644 169.154617,162.927551 169.109039,162.701996 
	C169.063446,162.476456 168.966293,162.026611 168.966293,162.026611 
z"/>
<path fill="#E7B376" opacity="1.000000" stroke="none" 
	d="
M178.831909,130.047226 
	C178.831909,130.047226 178.965454,129.603149 179.227631,129.244476 
	C179.681641,128.596680 179.873489,128.307587 180.065338,128.018494 
	C180.065338,128.018494 180.003372,128.003586 180.245758,127.928024 
	C180.678619,127.573700 180.869125,127.294945 181.059616,127.016197 
	C181.059616,127.016197 181.014618,127.022217 181.029022,127.042259 
	C181.043411,127.062302 181.491272,126.978035 181.717575,126.952354 
	C181.222000,128.268707 180.500107,129.610748 179.372681,130.962479 
	C178.967148,130.972183 178.858063,130.860535 178.876022,130.656433 
	C178.893982,130.452316 178.831909,130.047226 178.831909,130.047226 
z"/>
<path fill="#E7B376" opacity="1.000000" stroke="none" 
	d="
M183.309631,125.948112 
	C183.763565,124.737419 184.580856,123.506683 185.690109,122.124527 
	C185.212372,123.291435 184.442673,124.609749 183.309631,125.948112 
z"/>
<path fill="#884761" opacity="1.000000" stroke="none" 
	d="
M183.005707,144.644623 
	C182.416245,144.499359 181.760559,144.042465 181.089050,143.250336 
	C181.695297,143.387726 182.317398,143.860367 183.005707,144.644623 
z"/>
<path fill="#E7B376" opacity="1.000000" stroke="none" 
	d="
M186.229858,121.842041 
	C186.158585,121.446274 186.346909,120.899750 186.779236,120.187057 
	C186.845291,120.577682 186.667358,121.134483 186.229858,121.842041 
z"/>
<path fill="#E7B376" opacity="1.000000" stroke="none" 
	d="
M182.175262,126.872833 
	C182.118698,126.679176 182.302475,126.395653 182.733322,126.031601 
	C182.792145,126.228371 182.603882,126.505676 182.175262,126.872833 
z"/>
<path fill="#884761" opacity="1.000000" stroke="none" 
	d="
M181.000305,142.706390 
	C180.753632,142.900558 180.486725,142.759155 180.150543,142.328278 
	C180.331299,142.242966 180.630905,142.353638 181.000305,142.706390 
z"/>
<path fill="#884761" opacity="1.000000" stroke="none" 
	d="
M192.071854,154.682510 
	C191.877579,154.746490 191.572388,154.565216 191.179199,154.123917 
	C191.381119,154.055008 191.671021,154.246140 192.071854,154.682510 
z"/>
<path fill="#884761" opacity="1.000000" stroke="none" 
	d="
M183.976501,145.731445 
	C183.793030,145.784500 183.511810,145.596710 183.128464,145.171326 
	C183.310471,145.119354 183.594620,145.304977 183.976501,145.731445 
z"/>
<path fill="#E7B376" opacity="1.000000" stroke="none" 
	d="
M177.054321,132.869965 
	C176.786835,132.920990 176.912918,132.464096 177.170685,132.202393 
	C177.428436,131.940704 177.855667,131.855423 177.912537,131.910278 
	C177.969421,131.965149 178.085983,132.071899 178.085983,132.071899 
	C177.831253,132.320923 177.576538,132.569931 177.054321,132.869965 
z"/>
<path fill="#E7B376" opacity="1.000000" stroke="none" 
	d="
M179.020172,131.029449 
	C178.937500,131.379257 178.743011,131.625351 178.287872,131.948456 
	C178.085983,132.071899 177.969421,131.965149 177.959778,131.698669 
	C177.950134,131.432175 178.021149,131.003708 178.021149,131.003708 
	C178.021149,131.003708 177.997879,130.998062 178.215393,130.974121 
	C178.432907,130.950165 178.858063,130.860535 178.858063,130.860535 
	C178.858063,130.860535 178.967148,130.972183 179.020172,131.029449 
z"/>
<path fill="#EBBC72" opacity="1.000000" stroke="none" 
	d="
M169.990814,163.117310 
	C173.701523,163.816467 177.412247,164.515610 181.548157,165.203506 
	C181.973373,165.192245 182.312744,165.266342 182.758560,165.437744 
	C184.127319,165.706512 185.050262,165.803894 185.973206,165.901260 
	C186.235825,166.069168 186.458023,166.279739 186.693390,166.757080 
	C185.708099,168.254791 184.669205,169.528381 183.314850,170.535645 
	C181.557693,169.179276 180.229492,167.871780 178.649323,167.047058 
	C175.843719,165.582764 172.885300,164.411285 169.990814,163.117310 
z"/>
<path fill="#884761" opacity="1.000000" stroke="none" 
	d="
M185.730011,165.641998 
	C185.050262,165.803894 184.127319,165.706512 182.924667,165.387054 
	C183.592239,165.237549 184.539536,165.310135 185.730011,165.641998 
z"/>
<path fill="#F3CD57" opacity="1.000000" stroke="none" 
	d="
M105.097748,122.508026 
	C106.611725,121.382881 108.091362,120.671364 110.111649,120.069969 
	C110.839073,120.416702 110.953384,120.684296 111.010910,121.285202 
	C111.338699,122.073753 111.650810,122.559944 112.073380,123.257050 
	C112.374985,123.731178 112.617752,123.931984 113.024078,124.273849 
	C113.328636,124.730408 113.573013,124.914993 114.046799,125.264648 
	C114.798172,126.016312 115.371887,126.534386 116.034729,127.285690 
	C116.392487,127.704651 116.661125,127.890388 117.021149,128.304626 
	C117.298424,128.827026 117.560623,129.013794 117.993378,129.326355 
	C118.359695,129.743805 118.631767,129.928391 119.015022,130.344910 
	C119.417191,130.747879 119.708183,130.918930 120.167023,131.312714 
	C120.873657,132.031754 121.412453,132.528046 122.060226,133.244202 
	C122.377930,133.741852 122.654739,133.901718 123.002060,133.974442 
	C123.004471,134.005173 123.062691,133.984894 123.078857,134.151154 
	C123.095024,134.317429 123.147621,134.647385 123.177338,134.949631 
	C123.162956,136.235413 123.118874,137.218964 122.834610,138.433624 
	C119.720398,140.768860 116.846352,142.872986 113.982399,144.988556 
	C113.992493,145.000000 113.981926,144.977646 113.694016,145.059845 
	C112.915535,145.752380 112.424980,146.362717 111.934418,146.973038 
	C111.382759,147.479843 110.831108,147.986649 109.888565,148.881226 
	C109.275963,149.795090 109.054245,150.321213 108.832527,150.847321 
	C108.832527,150.847321 108.947662,150.846558 108.651138,150.941681 
	C108.205315,151.334778 108.056023,151.632751 107.906731,151.930740 
	C107.906731,151.930740 108.003845,151.951096 107.745705,151.941467 
	C107.487564,151.931854 107.056847,152.015381 107.056847,152.015381 
	C105.713676,148.195541 103.388199,144.409180 103.256683,140.548065 
	C103.057472,134.699905 104.384712,128.799728 105.097748,122.508026 
z"/>
<path fill="#954E69" opacity="1.000000" stroke="none" 
	d="
M134.029648,159.066818 
	C133.816574,159.330566 133.603500,159.594299 133.136292,159.919952 
	C131.169739,160.294220 129.457321,160.606552 127.336861,160.604462 
	C123.617470,155.176468 120.306114,150.062866 117.151688,144.648804 
	C120.205368,142.889374 123.102119,141.430420 126.004852,140.359070 
	C127.788948,144.481613 129.635056,148.186203 131.320007,151.962708 
	C132.351105,154.273682 133.134842,156.695038 134.029648,159.066818 
z"/>
<path fill="#8D486A" opacity="1.000000" stroke="none" 
	d="
M116.994751,144.949265 
	C120.306114,150.062866 123.617470,155.176468 126.961700,160.644257 
	C119.113831,164.459518 112.638390,158.848190 114.003006,147.100891 
	C113.996643,145.872482 113.989281,145.425064 113.981926,144.977646 
	C113.981926,144.977646 113.992493,145.000000 114.360092,145.009064 
	C115.483383,144.995163 116.239067,144.972214 116.994751,144.949265 
z"/>
<path fill="#A16549" opacity="1.000000" stroke="none" 
	d="
M113.694016,145.059845 
	C113.989281,145.425064 113.996643,145.872482 114.001587,146.654999 
	C113.540924,146.995926 113.082672,147.001770 112.279419,146.990326 
	C112.424980,146.362717 112.915535,145.752380 113.694016,145.059845 
z"/>
<path fill="#A16549" opacity="1.000000" stroke="none" 
	d="
M109.122711,150.751190 
	C109.054245,150.321213 109.275963,149.795090 109.761612,149.134842 
	C109.821327,149.552155 109.617119,150.103592 109.122711,150.751190 
z"/>
<path fill="#A16549" opacity="1.000000" stroke="none" 
	d="
M106.100540,154.759598 
	C106.009293,154.552261 106.191971,154.241943 106.597046,153.769714 
	C106.671120,153.957413 106.522789,154.307022 106.100540,154.759598 
z"/>
<path fill="#A16549" opacity="1.000000" stroke="none" 
	d="
M107.035629,152.281311 
	C107.056847,152.015381 107.487564,151.931854 107.705856,151.911911 
	C107.770981,152.197449 107.617821,152.502945 107.238884,152.944580 
	C107.013542,152.902893 107.013985,152.725067 107.035629,152.281311 
z"/>
<path fill="#A16549" opacity="1.000000" stroke="none" 
	d="
M108.150444,151.847046 
	C108.056023,151.632751 108.205315,151.334778 108.596107,150.956329 
	C108.689789,151.171707 108.541977,151.467514 108.150444,151.847046 
z"/>
<path fill="#985F46" opacity="1.000000" stroke="none" 
	d="
M110.995239,120.982857 
	C110.953384,120.684296 110.839073,120.416702 110.486420,120.038635 
	C109.864662,118.189064 109.408798,116.480949 108.976463,114.386337 
	C114.706543,114.359474 120.413078,114.719101 126.557587,115.079849 
	C126.995544,115.080971 127.335510,115.166740 127.778854,115.387802 
	C129.141693,115.766472 130.061188,115.924080 130.980682,116.081688 
	C130.980682,116.081688 130.993362,116.009476 131.186630,116.277359 
	C132.232239,116.770119 133.084595,116.994995 133.936935,117.219864 
	C134.042862,117.500954 134.225250,117.717720 134.719727,118.365761 
	C135.018845,120.218056 135.082321,121.574738 134.844055,122.754997 
	C132.699188,121.052376 130.856049,119.526176 128.653900,117.844254 
	C122.762390,116.941048 117.229927,116.193573 111.398872,115.405754 
	C111.635368,118.232674 111.756401,119.679443 111.655167,121.101021 
	C111.432884,121.075821 110.995239,120.982857 110.995239,120.982857 
z"/>
<path fill="#A25968" opacity="1.000000" stroke="none" 
	d="
M168.712952,136.704498 
	C167.683685,137.477722 165.426865,137.760284 165.290558,138.457397 
	C164.137100,144.357483 160.743164,148.909134 157.006042,153.690140 
	C154.296875,150.834213 151.634460,147.628510 148.664551,144.052567 
	C146.715195,146.549225 144.679779,149.156067 142.203064,151.601669 
	C139.446350,146.978012 134.110092,144.032181 135.277618,137.683350 
	C138.370132,136.607117 141.180481,135.810379 143.975647,134.701111 
	C143.907257,133.974792 143.854065,133.560989 144.069901,132.962143 
	C143.525894,131.201309 142.712860,129.625519 141.947922,128.025208 
	C141.996017,128.000702 141.910172,128.066055 141.940903,127.683990 
	C141.979675,126.536049 141.987701,125.770157 142.381134,124.955978 
	C147.638367,121.529076 152.817429,123.239365 157.938644,123.991692 
	C156.723984,127.489578 155.509308,130.987473 154.301758,134.464844 
	C159.176300,135.132782 163.822327,135.769409 168.712952,136.704498 
z"/>
<path fill="#F4CF53" opacity="1.000000" stroke="none" 
	d="
M144.969666,179.025223 
	C144.898010,180.480011 144.826370,181.934799 144.758926,183.304443 
	C135.422379,185.202408 119.665863,176.669830 116.458389,168.629669 
	C122.980026,166.138977 129.477203,163.602661 136.040375,161.250534 
	C136.593277,161.052368 137.588867,162.089401 138.696411,162.990402 
	C139.014053,163.428223 139.072571,163.889709 139.046112,164.287445 
	C139.377563,166.110840 139.735489,167.536530 140.049652,168.972961 
	C140.005905,168.983719 140.074310,168.925064 140.070374,169.236008 
	C140.403091,170.021393 140.739731,170.495834 141.040436,170.982361 
	C141.004517,170.994446 141.054489,170.937439 141.044510,171.233536 
	C141.318771,172.010803 141.603027,172.491959 141.948502,173.189438 
	C142.009735,173.405746 142.078171,173.850128 142.053543,174.227844 
	C143.009720,176.079483 143.990524,177.553406 144.977783,179.019012 
	C144.984222,179.010681 144.969650,179.025223 144.969666,179.025223 
z"/>
<path fill="#F4CF53" opacity="1.000000" stroke="none" 
	d="
M169.788101,163.041977 
	C172.885300,164.411285 175.843719,165.582764 178.649323,167.047058 
	C180.229492,167.871780 181.557693,169.179276 183.030365,170.675629 
	C183.061340,171.081955 183.023865,171.039139 182.805771,171.127808 
	C182.400940,171.503159 182.214203,171.789825 182.027466,172.076508 
	C182.027466,172.076508 182.009094,172.009338 181.799194,172.110092 
	C181.396561,172.490448 181.203827,172.770065 181.011108,173.049683 
	C181.011108,173.049683 180.999344,172.997314 180.791382,173.091125 
	C180.288254,173.366898 180.085037,173.622116 179.973816,173.950562 
	C179.973816,173.950562 179.993774,174.003372 179.654190,174.022430 
	C178.904037,174.476547 178.493469,174.911621 178.082901,175.346680 
	C176.267960,176.480057 174.453018,177.613434 172.330994,178.860443 
	C169.815994,179.782394 167.608047,180.590714 165.170715,181.654419 
	C164.396790,182.091095 163.852249,182.272385 163.120590,182.675690 
	C159.884445,183.201965 156.835419,183.506241 153.001221,183.888855 
	C154.982620,179.238083 156.830704,175.155182 158.455444,170.985229 
	C159.344330,168.703888 159.564194,166.129288 160.647522,163.968597 
	C161.287613,162.691986 163.024536,161.965302 164.671997,160.961868 
	C165.075790,160.932419 165.034500,160.955841 165.084549,161.313995 
	C166.474609,162.090607 167.814606,162.509079 169.154617,162.927551 
	C169.154617,162.927551 169.585388,162.966644 169.788101,163.041977 
z"/>
<path fill="#9C5368" opacity="1.000000" stroke="none" 
	d="
M134.995438,137.962845 
	C134.110092,144.032181 139.446350,146.978012 141.901291,151.759674 
	C139.596680,154.367462 137.152557,156.656021 134.369049,159.005707 
	C133.134842,156.695038 132.351105,154.273682 131.320007,151.962708 
	C129.635056,148.186203 127.788948,144.481613 126.239502,140.068237 
	C129.310593,138.914139 132.153015,138.438492 134.995438,137.962845 
z"/>
<path fill="#914A69" opacity="1.000000" stroke="none" 
	d="
M156.104126,170.285583 
	C156.102966,170.669571 156.101822,171.053558 155.682434,171.768616 
	C154.051743,173.606934 153.105011,175.570374 151.544205,176.479599 
	C150.255325,177.230408 146.981415,177.265137 146.746124,176.707001 
	C144.872208,172.261749 143.513580,167.599258 142.444946,163.001801 
	C145.356796,162.796860 147.860901,162.805679 150.276337,162.347305 
	C155.854218,161.288788 156.842087,162.036011 157.005844,168.000458 
	C157.005844,168.000458 156.992157,168.002197 156.728058,168.196518 
	C156.344025,169.022415 156.224075,169.654007 156.104126,170.285583 
z"/>
<path fill="#9B5660" opacity="1.000000" stroke="none" 
	d="
M157.294250,167.766571 
	C156.842087,162.036011 155.854218,161.288788 150.276337,162.347305 
	C147.860901,162.805679 145.356796,162.796860 142.199158,162.804932 
	C142.335968,160.433182 143.166580,158.256744 143.997208,156.080307 
	C143.997208,156.080307 143.993088,155.997406 144.368881,155.942841 
	C145.162216,154.941742 145.579742,153.995239 145.997269,153.048721 
	C146.186798,152.759964 146.376328,152.471191 147.192993,152.091492 
	C148.577835,151.973434 149.335571,151.946320 150.093292,151.919220 
	C150.093292,151.919220 150.079041,151.980118 150.148590,152.185822 
	C150.398453,152.684616 150.651367,152.887024 150.976868,152.998749 
	C151.963745,153.840530 152.903000,154.747192 153.945847,155.512726 
	C158.179504,158.620544 160.152588,162.380890 157.294250,167.766571 
z"/>
<path fill="#8F5054" opacity="1.000000" stroke="none" 
	d="
M143.693298,156.229324 
	C143.166580,158.256744 142.335968,160.433182 141.751144,162.806488 
	C143.513580,167.599258 144.872208,172.261749 146.746124,176.707001 
	C146.981415,177.265137 150.255325,177.230408 151.544205,176.479599 
	C153.105011,175.570374 154.051743,173.606934 155.603821,172.046387 
	C153.999985,175.738129 152.056519,179.483170 149.620728,184.176956 
	C147.766266,181.924240 146.683914,180.609451 145.285614,179.159943 
	C144.969650,179.025223 144.984222,179.010681 144.936493,178.677338 
	C143.951904,176.846039 143.015045,175.348083 142.078171,173.850128 
	C142.078171,173.850128 142.009735,173.405746 141.977783,172.894592 
	C141.648727,171.901443 141.351608,171.419449 141.054489,170.937439 
	C141.054489,170.937439 141.004517,170.994446 141.030975,170.674271 
	C140.729706,169.877762 140.402008,169.401413 140.074310,168.925064 
	C140.074310,168.925064 140.005905,168.983719 140.029984,168.584778 
	C139.726898,166.753799 139.399734,165.321747 139.072571,163.889709 
	C139.072571,163.889709 139.014053,163.428223 138.958481,163.201904 
	C140.398407,160.776520 141.893906,158.577423 143.693298,156.229324 
z"/>
<path fill="#8F5054" opacity="1.000000" stroke="none" 
	d="
M150.056046,151.582520 
	C149.335571,151.946320 148.577835,151.973434 147.442566,152.001617 
	C148.049606,151.750381 149.034195,151.498093 150.056046,151.582520 
z"/>
<path fill="#8F5054" opacity="1.000000" stroke="none" 
	d="
M145.716278,153.186707 
	C145.579742,153.995239 145.162216,154.941742 144.410248,155.939682 
	C144.528992,155.102295 144.982147,154.213501 145.716278,153.186707 
z"/>
<path fill="#8F5054" opacity="1.000000" stroke="none" 
	d="
M156.347565,170.072113 
	C156.224075,169.654007 156.344025,169.022415 156.723114,168.191101 
	C156.851852,168.613785 156.721436,169.236206 156.347565,170.072113 
z"/>
<path fill="#8F5054" opacity="1.000000" stroke="none" 
	d="
M150.901306,152.751801 
	C150.651367,152.887024 150.398453,152.684616 150.130280,152.160492 
	C150.303513,152.121246 150.564621,152.313034 150.901306,152.751801 
z"/>
<path fill="#EBBC72" opacity="1.000000" stroke="none" 
	d="
M178.364075,175.237625 
	C178.493469,174.911621 178.904037,174.476547 179.633881,174.002625 
	C179.517181,174.352020 179.081207,174.740295 178.364075,175.237625 
z"/>
<path fill="#EBBC72" opacity="1.000000" stroke="none" 
	d="
M182.271942,171.981567 
	C182.214203,171.789825 182.400940,171.503159 182.832596,171.121643 
	C182.890488,171.313416 182.703445,171.600037 182.271942,171.981567 
z"/>
<path fill="#EBBC72" opacity="1.000000" stroke="none" 
	d="
M181.256653,172.960648 
	C181.203827,172.770065 181.396561,172.490448 181.832886,172.118866 
	C181.885071,172.308456 181.693649,172.590027 181.256653,172.960648 
z"/>
<path fill="#EBBC72" opacity="1.000000" stroke="none" 
	d="
M180.216965,173.879456 
	C180.085037,173.622116 180.288254,173.366898 180.817169,173.098618 
	C180.853958,173.277649 180.657043,173.542999 180.216965,173.879456 
z"/>
<path fill="#EEBD70" opacity="1.000000" stroke="none" 
	d="
M143.800873,133.147186 
	C143.854065,133.560989 143.907257,133.974792 143.548157,134.727615 
	C141.421051,135.034973 139.706253,135.003326 137.992828,134.638077 
	C137.984573,133.859482 137.974976,133.414474 138.240570,132.776886 
	C137.726822,130.378983 136.937866,128.173676 136.115417,125.631157 
	C135.744324,124.505096 135.406754,123.716240 135.087296,122.941452 
	C135.105423,122.955528 135.145782,122.931419 135.145782,122.931419 
	C135.082321,121.574738 135.018845,120.218056 134.915527,118.456429 
	C135.580627,116.814125 136.735672,115.633957 136.901566,114.328125 
	C137.310501,111.109283 137.265274,107.832748 137.753113,104.337570 
	C138.103577,104.095741 138.227325,104.211136 138.183411,104.654839 
	C138.393219,109.825615 138.646942,114.552696 138.905762,119.447800 
	C138.910843,119.615837 139.006912,119.938042 138.997772,120.334137 
	C139.962479,123.175507 140.936325,125.620781 141.910172,128.066055 
	C141.910172,128.066055 141.996017,128.000702 141.902145,128.386871 
	C142.472473,130.231094 143.136658,131.689148 143.800873,133.147186 
z"/>
<path fill="#EEBD70" opacity="1.000000" stroke="none" 
	d="
M138.908630,100.230049 
	C139.144119,101.086319 139.057571,102.121582 138.784653,103.614090 
	C138.598282,104.071327 138.227325,104.211136 138.227325,104.211136 
	C138.227325,104.211136 138.103577,104.095741 138.041611,104.037659 
	C138.181961,102.789391 138.384262,101.599213 138.908630,100.230049 
z"/>
<path fill="#E9BB76" opacity="1.000000" stroke="none" 
	d="
M133.776337,116.906967 
	C133.084595,116.994995 132.232239,116.770119 131.157181,116.299194 
	C131.828232,116.233452 132.721985,116.413765 133.776337,116.906967 
z"/>
<path fill="#E9BB76" opacity="1.000000" stroke="none" 
	d="
M130.768280,115.785202 
	C130.061188,115.924080 129.141693,115.766472 127.953522,115.372849 
	C128.641861,115.254135 129.598862,115.371429 130.768280,115.785202 
z"/>
<path fill="#904A6A" opacity="1.000000" stroke="none" 
	d="
M141.005295,103.361160 
	C145.064957,102.677925 149.123260,101.972603 153.153183,102.108688 
	C157.442841,102.253555 158.041122,105.670517 157.989014,109.982498 
	C156.489532,111.422356 154.967575,112.665916 153.520889,112.583771 
	C148.707092,112.310417 143.920334,111.560989 139.098602,110.584671 
	C139.077271,108.815979 139.080536,107.456673 139.083801,106.097359 
	C139.719681,105.301338 140.355576,104.505318 141.005295,103.361160 
z"/>
<path fill="#A16549" opacity="1.000000" stroke="none" 
	d="
M139.058167,105.737228 
	C139.080536,107.456673 139.077271,108.815979 139.062683,111.036255 
	C139.001129,114.358063 138.950897,116.818916 138.900665,119.279770 
	C138.646942,114.552696 138.393219,109.825615 138.183411,104.654839 
	C138.227325,104.211136 138.598282,104.071327 138.784561,104.003632 
	C138.991425,104.416313 139.011993,104.896706 139.058167,105.737228 
z"/>
<path fill="#9B5368" opacity="1.000000" stroke="none" 
	d="
M138.905762,119.447800 
	C138.950897,116.818916 139.001129,114.358063 139.087280,111.445633 
	C143.920334,111.560989 148.707092,112.310417 153.520889,112.583771 
	C154.967575,112.665916 156.489532,111.422356 157.988800,110.391754 
	C158.343719,108.867546 158.686829,107.737686 159.075729,106.228973 
	C158.933823,110.298973 158.754868,114.748215 158.553238,119.196426 
	C158.489456,120.603554 158.365082,122.007927 158.103546,123.702629 
	C152.817429,123.239365 147.638367,121.529076 142.246338,124.644028 
	C140.819733,122.899597 139.913315,121.418823 139.006912,119.938042 
	C139.006912,119.938042 138.910843,119.615837 138.905762,119.447800 
z"/>
<path fill="#8F4F55" opacity="1.000000" stroke="none" 
	d="
M180.822937,127.119751 
	C180.869125,127.294945 180.678619,127.573700 180.253784,127.958847 
	C180.208389,127.784599 180.397324,127.503960 180.822937,127.119751 
z"/>
<path fill="#8F4F55" opacity="1.000000" stroke="none" 
	d="
M177.796814,131.107635 
	C178.021149,131.003708 177.950134,131.432175 177.902893,131.643799 
	C177.855667,131.855423 177.428436,131.940704 177.212448,131.969116 
	C177.099899,131.670624 177.291916,131.408646 177.796814,131.107635 
z"/>
<path fill="#8F4F55" opacity="1.000000" stroke="none" 
	d="
M178.876022,130.656433 
	C178.858063,130.860535 178.432907,130.950165 178.218536,130.985657 
	C178.075958,130.724411 178.225388,130.474060 178.642212,130.158661 
	C178.831909,130.047226 178.893982,130.452316 178.876022,130.656433 
z"/>
<path fill="#8F4F55" opacity="1.000000" stroke="none" 
	d="
M179.821533,128.131012 
	C179.873489,128.307587 179.681641,128.596680 179.258957,129.014740 
	C179.211304,128.843628 179.394516,128.543579 179.821533,128.131012 
z"/>
<path fill="#EBBC72" opacity="1.000000" stroke="none" 
	d="
M169.109039,162.701996 
	C167.814606,162.509079 166.474609,162.090607 165.090225,161.296417 
	C165.045853,160.920715 165.536850,160.863251 166.004639,160.920929 
	C166.472412,160.978607 166.961380,161.030060 166.961380,161.030060 
	C166.961380,161.030060 166.987152,161.001114 167.068878,161.220032 
	C167.350464,161.690125 167.609360,161.793793 167.927322,161.749954 
	C168.095383,161.815247 168.263443,161.880524 168.698883,161.986206 
	C168.966293,162.026611 169.063446,162.476456 169.109039,162.701996 
z"/>
<path fill="#884761" opacity="1.000000" stroke="none" 
	d="
M166.875397,160.811111 
	C166.961380,161.030060 166.472412,160.978607 166.247955,160.877487 
	C166.023514,160.776367 166.032990,160.398346 166.048019,160.210251 
	C166.373276,160.125366 166.615402,160.315369 166.875397,160.811111 
z"/>
<path fill="#884761" opacity="1.000000" stroke="none" 
	d="
M167.812866,161.580734 
	C167.609360,161.793793 167.350464,161.690125 167.065186,161.238297 
	C167.258133,161.087723 167.497665,161.212341 167.812866,161.580734 
z"/>
<path fill="#9B5565" opacity="1.000000" stroke="none" 
	d="
M136.148926,125.968361 
	C136.937866,128.173676 137.726822,130.378983 137.821381,132.743073 
	C134.156769,133.295990 131.186539,133.690094 127.782471,134.058289 
	C125.919991,134.016571 124.491341,134.000732 123.062691,133.984894 
	C123.062691,133.984894 123.004471,134.005173 122.888290,133.760223 
	C122.558807,133.250824 122.285194,133.087173 121.951256,133.024323 
	C121.412453,132.528046 120.873657,132.031754 120.183266,131.038147 
	C120.044762,130.358749 120.057854,130.176682 120.435272,129.988403 
	C123.537369,125.988121 126.275146,121.994049 129.012924,117.999977 
	C130.856049,119.526176 132.699188,121.052376 134.844055,122.754997 
	C135.145782,122.931419 135.105423,122.955528 135.066223,123.294144 
	C135.401001,124.411293 135.774963,125.189827 136.148926,125.968361 
z"/>
<path fill="#A16549" opacity="1.000000" stroke="none" 
	d="
M137.991455,134.971664 
	C139.706253,135.003326 141.421051,135.034973 143.563339,135.040131 
	C141.180481,135.810379 138.370132,136.607117 135.277618,137.683350 
	C132.153015,138.438492 129.310593,138.914139 126.233528,139.680603 
	C123.102119,141.430420 120.205368,142.889374 117.151680,144.648804 
	C116.239067,144.972214 115.483383,144.995163 114.350006,144.997620 
	C116.846352,142.872986 119.720398,140.768860 123.221115,138.373779 
	C128.562347,137.045776 133.276901,136.008728 137.991455,134.971664 
z"/>
<path fill="#ECB67D" opacity="1.000000" stroke="none" 
	d="
M137.992828,134.638077 
	C133.276901,136.008728 128.562347,137.045776 123.461288,138.142670 
	C123.118874,137.218964 123.162956,136.235413 123.545128,135.063934 
	C125.327568,134.612076 126.771935,134.348145 128.216293,134.084198 
	C131.186539,133.690094 134.156769,133.295990 137.546188,132.935669 
	C137.974976,133.414474 137.984573,133.859482 137.992828,134.638077 
z"/>
<path fill="#985F46" opacity="1.000000" stroke="none" 
	d="
M127.782471,134.058304 
	C126.771935,134.348145 125.327568,134.612076 123.515411,134.761688 
	C123.147621,134.647385 123.095024,134.317429 123.078857,134.151154 
	C124.491341,134.000732 125.919991,134.016571 127.782471,134.058304 
z"/>
<path fill="#985F46" opacity="1.000000" stroke="none" 
	d="
M115.945610,127.052460 
	C115.371887,126.534386 114.798172,126.016312 114.063110,125.027840 
	C113.901764,124.557442 113.901291,124.083565 114.251839,124.099403 
	C115.112450,125.043251 115.622505,125.971252 116.085205,126.936798 
	C116.037842,126.974327 115.945610,127.052460 115.945610,127.052460 
z"/>
<path fill="#E9BB76" opacity="1.000000" stroke="none" 
	d="
M111.010910,121.285202 
	C110.995239,120.982857 111.432884,121.075821 111.680756,121.085449 
	C111.928627,121.095085 111.914650,121.038330 111.919891,121.340363 
	C112.010384,122.035019 112.095634,122.427635 112.125839,122.876205 
	C112.070808,122.932144 111.962921,123.046143 111.962921,123.046143 
	C111.650810,122.559944 111.338699,122.073753 111.010910,121.285202 
z"/>
<path fill="#985F46" opacity="1.000000" stroke="none" 
	d="
M118.903839,130.112976 
	C118.631767,129.928391 118.359695,129.743805 118.039848,129.282654 
	C117.992081,129.006073 118.083717,128.917313 118.287689,129.038757 
	C118.745834,129.359253 118.942642,129.604355 119.037872,129.950165 
	C118.993668,130.004822 118.903839,130.112976 118.903839,130.112976 
z"/>
<path fill="#985F46" opacity="1.000000" stroke="none" 
	d="
M116.929764,128.076126 
	C116.661125,127.890388 116.392487,127.704651 116.034729,127.285690 
	C115.945610,127.052460 116.037842,126.974327 116.280083,127.068962 
	C116.769234,127.368790 116.958855,127.617638 117.050430,127.951248 
	C117.009666,127.992340 116.929764,128.076126 116.929764,128.076126 
z"/>
<path fill="#E9BB76" opacity="1.000000" stroke="none" 
	d="
M113.901291,124.083565 
	C113.901291,124.083565 113.901764,124.557442 113.885452,124.794250 
	C113.573013,124.914993 113.328636,124.730408 113.056564,124.247345 
	C112.977112,124.017380 113.039757,123.961662 113.268867,124.001778 
	C113.497978,124.041893 113.961517,124.085846 113.948189,124.064796 
	C113.934860,124.043747 113.901291,124.083565 113.901291,124.083565 
z"/>
<path fill="#E9BB76" opacity="1.000000" stroke="none" 
	d="
M112.944626,124.043884 
	C112.617752,123.931984 112.374985,123.731178 112.073380,123.257050 
	C111.962921,123.046143 112.070808,122.932144 112.329697,122.929932 
	C112.588585,122.927711 113.001968,123.016571 113.003387,123.007080 
	C113.004814,122.997597 112.986252,122.993004 112.991188,123.235634 
	C112.996124,123.478264 113.039757,123.961662 113.039757,123.961662 
	C113.039757,123.961662 112.977112,124.017380 112.944626,124.043884 
z"/>
<path fill="#985F46" opacity="1.000000" stroke="none" 
	d="
M117.945610,129.049774 
	C117.560623,129.013794 117.298424,128.827026 117.021149,128.304626 
	C116.929764,128.076126 117.009666,127.992340 117.255219,128.076920 
	C117.757446,128.365326 117.951759,128.617264 118.083717,128.917313 
	C118.083717,128.917313 117.992081,129.006073 117.945610,129.049774 
z"/>
<path fill="#985F46" opacity="1.000000" stroke="none" 
	d="
M122.060226,133.244202 
	C122.285194,133.087173 122.558807,133.250824 122.885880,133.729492 
	C122.654739,133.901718 122.377930,133.741852 122.060226,133.244202 
z"/>
<path fill="#985F46" opacity="1.000000" stroke="none" 
	d="
M120.070938,129.994629 
	C120.057854,130.176682 120.044762,130.358749 120.015427,130.815399 
	C119.708183,130.918930 119.417191,130.747879 119.015022,130.344910 
	C118.903839,130.112976 118.993668,130.004822 119.284256,129.980347 
	C119.574844,129.955872 120.070938,129.994629 120.070938,129.994629 
z"/>
<path fill="#8D4966" opacity="1.000000" stroke="none" 
	d="
M120.435272,129.988403 
	C120.070938,129.994629 119.574844,129.955872 119.328461,129.925690 
	C118.942642,129.604355 118.745834,129.359253 118.287689,129.038757 
	C117.951759,128.617264 117.757446,128.365326 117.295975,128.035828 
	C116.958855,127.617638 116.769234,127.368790 116.327446,127.031433 
	C115.622505,125.971252 115.112450,125.043251 114.251839,124.099403 
	C113.901291,124.083565 113.934860,124.043747 113.866364,123.819763 
	C113.527321,123.394859 113.256790,123.193932 112.986252,122.993004 
	C112.986252,122.993004 113.004814,122.997597 112.990829,122.699783 
	C112.622780,121.947418 112.268715,121.492874 111.914642,121.038330 
	C111.914650,121.038330 111.928627,121.095085 111.903030,121.110657 
	C111.756401,119.679443 111.635368,118.232674 111.398872,115.405754 
	C117.229927,116.193573 122.762390,116.941048 128.653900,117.844254 
	C126.275146,121.994049 123.537369,125.988121 120.435272,129.988403 
z"/>
<path fill="#A16549" opacity="1.000000" stroke="none" 
	d="
M138.997772,120.334137 
	C139.913315,121.418823 140.819733,122.899597 141.860931,124.692322 
	C141.987701,125.770157 141.979675,126.536049 141.940903,127.683990 
	C140.936325,125.620781 139.962479,123.175507 138.997772,120.334137 
z"/>
<path fill="#A16549" opacity="1.000000" stroke="none" 
	d="
M144.069885,132.962143 
	C143.136658,131.689148 142.472473,130.231094 141.854050,128.411392 
	C142.712860,129.625519 143.525894,131.201309 144.069885,132.962143 
z"/>
<path fill="#EBBC72" opacity="1.000000" stroke="none" 
	d="
M142.053543,174.227844 
	C143.015045,175.348083 143.951904,176.846039 144.930054,178.685669 
	C143.990524,177.553406 143.009720,176.079483 142.053543,174.227844 
z"/>
<path fill="#EBBC72" opacity="1.000000" stroke="none" 
	d="
M139.046112,164.287445 
	C139.399734,165.321747 139.726898,166.753799 140.073730,168.574020 
	C139.735489,167.536530 139.377563,166.110840 139.046112,164.287445 
z"/>
<path fill="#EBBC72" opacity="1.000000" stroke="none" 
	d="
M140.070374,169.236008 
	C140.402008,169.401413 140.729706,169.877762 141.066895,170.662186 
	C140.739731,170.495834 140.403091,170.021393 140.070374,169.236008 
z"/>
<path fill="#EBBC72" opacity="1.000000" stroke="none" 
	d="
M141.044510,171.233536 
	C141.351608,171.419449 141.648727,171.901443 141.916565,172.678284 
	C141.603027,172.491959 141.318771,172.010803 141.044510,171.233536 
z"/>
<path fill="#985F46" opacity="1.000000" stroke="none" 
	d="
M136.115417,125.631157 
	C135.774963,125.189827 135.401001,124.411293 135.048096,123.280075 
	C135.406754,123.716240 135.744324,124.505096 136.115417,125.631157 
z"/>
<path fill="#985F46" opacity="1.000000" stroke="none" 
	d="
M111.919891,121.340363 
	C112.268715,121.492874 112.622780,121.947418 112.989410,122.709267 
	C113.001968,123.016571 112.588585,122.927711 112.384735,122.873985 
	C112.095634,122.427635 112.010384,122.035019 111.919891,121.340363 
z"/>
<path fill="#985F46" opacity="1.000000" stroke="none" 
	d="
M112.991188,123.235634 
	C113.256790,123.193932 113.527321,123.394859 113.879684,123.840820 
	C113.961517,124.085846 113.497978,124.041893 113.268867,124.001778 
	C113.039757,123.961662 112.996124,123.478264 112.991188,123.235634 
z"/>
</svg>